<svg xmlns="http://www.w3.org/2000/svg" width="20" height="18" viewBox="0 0 20 18">
    <path fill="#FFF" fill-rule="nonzero" d="M16.625 17.391l-.238-.238c-.015.001-.028.005-.043.006a4.118 4.118 0 0 0-.129-.178l-.292-.292.032-.03c-.395-.468-.857-.938-.857-.938l.575-.48s.452.508.885.82a8.972 8.972 0 0 0 2.356-5.535l-.077-.077H17.59v-.767s.72-.012 1.334 0a8.961 8.961 0 0 0-1.12-4.077c-.365-.515-.778-.987-1.173-1.579l.032-.032-.005-.005c-.166.14-.986.9-.986.9l-.575-.575s.727-.561.863-.959c-.105-.12-.208-.233-.31-.34A8.97 8.97 0 0 0 10.305.967v1.524h-.767s-.01-.888-.001-1.524A8.97 8.97 0 0 0 4.199 3.01c-.108.111-.214.225-.317.346 0 .007-.001.011-.003.013l-.04-.046-.006.006c.019.026.038.047.046.04l.962 1.137-.575.48-.95-1.141A8.974 8.974 0 0 0 .917 9.682h1.43v.671s-.831.095-1.424.097l.003.052c.042.015.08.029.08.043a1.177 1.177 0 0 0-.067.112 8.972 8.972 0 0 0 2.413 5.475c.271-.38.913-.89.913-.89l.48.67-.856.749.03.028-.657.657A9.944 9.944 0 0 1 0 9.97C0 4.463 4.463 0 9.97 0c5.506 0 9.97 4.463 9.97 9.97a9.944 9.944 0 0 1-3.315 7.421zm-7.24-7.928a.245.245 0 0 1 .057-.069h.048a.81.81 0 0 1 .593-.067l3.29-3.384h.479c.107.2.096.48.096.48l-3.312 3.406a.815.815 0 1 1-1.252-.366z"/>
</svg>
