<svg xmlns="http://www.w3.org/2000/svg" width="16" height="20" viewBox="0 0 16 20">
    <path fill="#575757" fill-rule="nonzero" d="M13.6 2h-3.526v-.5c0-.827-.678-1.5-1.511-1.5H6.548c-.833 0-1.511.673-1.511 1.5V2H1.511C.678 2 0 2.673 0 3.5v1c0 .652.421 1.208 1.007 1.414V18.5c0 .827.678 1.5 1.512 1.5h10.074c.833 0 1.51-.673 1.51-1.5V5.914A1.503 1.503 0 0 0 15.112 4.5v-1c0-.827-.678-1.5-1.511-1.5zm-7.556-.5c0-.276.226-.5.504-.5h2.015c.278 0 .504.224.504.5V2H6.044v-.5zM12.593 19H2.519a.502.502 0 0 1-.504-.5V6h11.081v12.5c0 .276-.225.5-.503.5zm1.51-14.5c0 .276-.225.5-.503.5H1.511a.502.502 0 0 1-.504-.5v-1c0-.276.226-.5.504-.5H13.6c.278 0 .504.224.504.5v1zM10.579 7a.502.502 0 0 0-.504.5v10c0 .276.226.5.504.5a.502.502 0 0 0 .503-.5v-10c0-.276-.225-.5-.503-.5zM7.556 7a.502.502 0 0 0-.504.5v10c0 .276.226.5.504.5a.502.502 0 0 0 .503-.5v-10c0-.276-.225-.5-.503-.5zM4.533 7a.502.502 0 0 0-.503.5v10c0 .276.225.5.503.5a.502.502 0 0 0 .504-.5v-10c0-.276-.226-.5-.504-.5z"/>
</svg>
