<svg xmlns="http://www.w3.org/2000/svg" width="21" height="22" viewBox="0 0 21 22">
    <path fill="#FFF" fill-rule="nonzero" d="M10.504.85c2.971 0 5.389 2.389 5.389 5.326s-2.418 5.325-5.39 5.325c-2.97 0-5.389-2.388-5.389-5.325 0-2.937 2.418-5.326 5.39-5.326zm0 1.067c-2.379 0-4.315 1.912-4.315 4.259 0 2.347 1.936 4.259 4.315 4.259 2.378 0 4.314-1.912 4.314-4.26 0-2.346-1.936-4.258-4.314-4.258zM.85 20.039l.004-.055a5.46 5.46 0 0 1 .156-.923 6.102 6.102 0 0 1 1.015-2.123l.077-.101c1.6-2.064 4.525-3.144 8.45-3.144 3.923 0 6.847 1.08 8.448 3.143a6.1 6.1 0 0 1 1.084 2.186c.067.255.115.503.144.738.016.13.025.255.025.324 0 .59-.482 1.066-1.076 1.066H1.927A1.072 1.072 0 0 1 .85 20.08l.001-.041zm18.327.044a1.782 1.782 0 0 0-.016-.194 4.417 4.417 0 0 0-.117-.595 5.042 5.042 0 0 0-.896-1.807c-1.379-1.776-4.003-2.727-7.597-2.727-3.594 0-6.22.95-7.596 2.727l-.064.084a5.045 5.045 0 0 0-.84 1.755 4.405 4.405 0 0 0-.124.727l-.003.033c0-.002 5.751-.003 17.253-.003z"/>
</svg>
