<svg xmlns="http://www.w3.org/2000/svg" width="20" height="20" viewBox="0 0 20 20">
    <path fill="#575757" fill-rule="nonzero" d="M3.212 12.442l.27.65c.06.124.048.371-.024.49l-1.074 1.756c-.23.377-.183.91.126 1.257l.91.91c.317.28.876.331 1.241.11l1.757-1.074a.619.619 0 0 1 .511-.014l.649.268c.13.045.297.228.33.364l.482 2.003c.102.424.507.773.943.813 0 0 .267.025.667.025s.666-.025.667-.025c.435-.039.84-.389.942-.813l.483-2.003c.033-.135.199-.319.351-.372l.65-.269c.114-.056.38-.045.49.023l1.756 1.075c.155.094.34.144.535.144.266 0 .523-.093.722-.27l.909-.91c.294-.33.341-.864.111-1.241l-1.074-1.757c-.072-.118-.084-.365-.014-.511l.268-.649a.628.628 0 0 1 .364-.33l2.002-.482c.425-.102.774-.507.814-.943 0 0 .025-.267.025-.667s-.025-.666-.025-.667c-.04-.435-.389-.84-.814-.943l-2.002-.482c-.135-.032-.319-.199-.372-.351l-.27-.65a.627.627 0 0 1 .024-.49l1.074-1.756c.23-.377.183-.91-.126-1.257l-.91-.909c-.318-.282-.878-.333-1.241-.111l-1.757 1.074a.619.619 0 0 1-.511.014l-.649-.268a.627.627 0 0 1-.329-.364L11.61.838a1.112 1.112 0 0 0-.943-.814C10.666.024 10.4 0 10 0s-.667.025-.668.025c-.434.039-.84.389-.943.813L7.907 2.84c-.033.135-.2.319-.352.372l-.649.27a.674.674 0 0 1-.49-.024L4.66 2.384c-.364-.222-.911-.183-1.257.126l-.909.91c-.293.33-.341.863-.111 1.24l1.074 1.757c.073.118.084.365.014.511l-.268.649a.628.628 0 0 1-.363.33l-2.003.482a1.112 1.112 0 0 0-.814.943c.002 0-.023.267-.023.667s.025.667.025.667c.039.435.389.84.813.943l2.002.482c.135.032.319.2.372.351zM.769 10c0-.352.02-.59.022-.598a.358.358 0 0 1 .227-.264l2.003-.483c.389-.093.78-.449.902-.805l.249-.605c.175-.36.15-.887-.058-1.229L3.04 4.26c-.052-.086-.037-.255.013-.313l.878-.878c.07-.062.249-.078.329-.03l1.756 1.075c.333.204.904.218 1.206.068l.606-.25c.378-.13.733-.522.827-.912l.482-2.002A.358.358 0 0 1 9.4.79c.008 0 .246-.02.598-.02s.59.02.597.02c.104.01.24.128.265.228l.482 2.002c.094.389.449.781.806.903l.605.249c.351.172.896.145 1.228-.058l1.756-1.074c.08-.049.27-.023.312.013l.879.878c.066.075.08.243.029.329l-1.074 1.756c-.209.341-.233.87-.068 1.206l.25.606c.13.378.522.733.911.827l2.002.482c.102.024.22.16.229.264 0 .008.02.246.02.598s-.02.59-.021.597a.358.358 0 0 1-.228.265l-2.002.482c-.389.094-.78.45-.902.806l-.25.605c-.174.36-.15.887.059 1.228l1.074 1.756c.052.086.037.255-.014.312l-.877.879a.306.306 0 0 1-.193.06.266.266 0 0 1-.135-.031l-1.757-1.074c-.332-.204-.903-.218-1.206-.068l-.606.25c-.378.13-.733.523-.826.911l-.482 2.002a.358.358 0 0 1-.265.229c-.008 0-.246.02-.598.02s-.59-.02-.598-.021a.358.358 0 0 1-.264-.228l-.483-2.002c-.093-.389-.449-.78-.805-.902l-.605-.25a1.256 1.256 0 0 0-.55-.116c-.253 0-.494.062-.679.175L4.26 16.96c-.08.048-.27.022-.313-.014l-.878-.878c-.066-.075-.08-.243-.03-.329l1.075-1.757c.209-.34.233-.869.068-1.206l-.25-.606a1.384 1.384 0 0 0-.912-.826l-2.002-.482a.358.358 0 0 1-.228-.265c0-.007-.02-.245-.02-.597zm9.23 4.23a4.235 4.235 0 0 0 4.23-4.23A4.235 4.235 0 0 0 10 5.769a4.235 4.235 0 0 0-4.23 4.23 4.235 4.235 0 0 0 4.23 4.23zm0-7.691a3.465 3.465 0 0 1 3.461 3.46 3.465 3.465 0 0 1-3.461 3.462 3.465 3.465 0 0 1-3.461-3.461 3.465 3.465 0 0 1 3.46-3.461z"/>
</svg>
