<svg xmlns="http://www.w3.org/2000/svg" width="20" height="20" viewBox="0 0 20 20">
    <path fill="#FFF" fill-rule="nonzero" d="M7.263.479a9.73 9.73 0 0 0-5.946 4.564 9.732 9.732 0 0 0-.98 7.431 9.73 9.73 0 0 0 4.564 5.947 9.734 9.734 0 0 0 7.431.979 9.726 9.726 0 0 0 5.947-4.564 9.732 9.732 0 0 0 .98-7.432 9.726 9.726 0 0 0-4.565-5.947A9.728 9.728 0 0 0 7.264.48zM17.387 14.32c-2.416 4.185-7.786 5.623-11.97 3.207-4.185-2.416-5.624-7.785-3.208-11.97C4.625 1.373 9.995-.065 14.18 2.351c4.185 2.416 5.624 7.785 3.208 11.97zM9.316 4.17v5.857l-4.374 2.04a.516.516 0 0 0 .436.933l4.672-2.178a.432.432 0 0 0 .065-.038l.034-.024.028-.024.025-.024.024-.027.024-.03a.56.56 0 0 0 .076-.152.509.509 0 0 0 .02-.118V4.17a.516.516 0 1 0-1.03 0z"/>
</svg>
