<svg xmlns="http://www.w3.org/2000/svg" width="16" height="10" viewBox="0 0 16 10">
    <path fill="#000" fill-rule="evenodd" d="M4.265 7.197H2.733L2.213 10H1.066l.52-2.803H.005v-1.08H1.79l.396-2.14H.526V2.892h1.866L2.925.047h1.141L3.533 2.89h1.538L5.604.047h1.142L6.213 2.89h1.422v1.087H6.008l-.397 2.14h1.511v1.08H5.406L4.886 10H3.746l.52-2.803zm-1.327-1.08H4.47l.396-2.14H3.335l-.397 2.14zm9.48 1.08h-1.531L10.367 10H9.22l.52-2.803h-1.58v-1.08h1.784l.397-2.14H8.679V2.892h1.866l.533-2.844h1.142l-.534 2.844h1.539l.533-2.844h1.141l-.533 2.844h1.422v1.087h-1.627l-.396 2.14h1.51v1.08H13.56L13.04 10h-1.142l.52-2.803zm-1.326-1.08h1.531l.396-2.14h-1.53l-.397 2.14z"/>
</svg>
