<svg xmlns="http://www.w3.org/2000/svg" width="18" height="20" viewBox="0 0 18 20">
    <path fill="#4A4A4A" fill-rule="evenodd" d="M8.75 0A6.257 6.257 0 0 0 2.5 6.25v1.875h-.938C.703 8.125 0 8.826 0 9.688v8.75C0 19.297.701 20 1.563 20h14.374c.862 0 1.563-.701 1.563-1.563v-8.75c0-.86-.701-1.562-1.563-1.562H15V6.25A6.257 6.257 0 0 0 8.75 0zM3.125 6.25A5.632 5.632 0 0 1 8.75.625a5.632 5.632 0 0 1 5.625 5.625v1.875H12.5V6.25A3.754 3.754 0 0 0 8.75 2.5 3.754 3.754 0 0 0 5 6.25v1.875H3.125V6.25zm8.75 1.875h-6.25V6.25A3.129 3.129 0 0 1 8.75 3.125a3.129 3.129 0 0 1 3.125 3.125v1.875zm-4.192 5L4.558 16.25H1.692l3.125-3.125h2.866zm3.75 0L8.308 16.25H5.442l3.125-3.125h2.866zm3.75 0l-3.125 3.125H9.192l3.125-3.125h2.866zm1.692 0v3.125h-3.933l3.125-3.125h.808zM.808 16.25H.625v-3.125h3.308L.808 16.25zm15.13 3.125H1.562a.939.939 0 0 1-.937-.938v-1.562h16.25v1.563c0 .516-.42.937-.938.937zm.937-9.688V12.5H.625V9.687c0-.516.42-.937.938-.937h14.374c.517 0 .938.42.938.938z"/>
</svg>
