<svg xmlns="http://www.w3.org/2000/svg" width="18" height="13" viewBox="0 0 18 13">
    <path fill="#333" fill-rule="nonzero" d="M.056 1.257C.056.594.577.056 1.222.056h15.556c.645 0 1.166.538 1.166 1.2v9.932c0 .663-.521 1.2-1.166 1.2H1.222c-.645 0-1.166-.538-1.166-1.2V1.257zm1.074 0v9.93c0 .054.041.098.092.098h15.556c.05 0 .092-.044.092-.097V1.257a.095.095 0 0 0-.092-.097H1.222a.095.095 0 0 0-.092.097zM1.563.83l7.401 6.312L16.437.83a.527.527 0 0 1 .757.078.563.563 0 0 1-.075.776L9.34 8.253a.526.526 0 0 1-.682 0L.881 1.683A.563.563 0 0 1 .806.909.527.527 0 0 1 1.563.83z"/>
</svg>
