<svg xmlns="http://www.w3.org/2000/svg" width="20" height="19" viewBox="0 0 20 19">
    <g fill="none" fill-rule="evenodd">
        <path stroke="#333" d="M17.444.889H2.334C1.597.889 1 1.487 1 2.222v14.445C1 17.402 1.598 18 2.333 18h15.111c.736 0 1.334-.598 1.334-1.333V2.222c0-.735-.598-1.333-1.334-1.333z"/>
        <g stroke="#333" stroke-linecap="square" stroke-width=".5">
            <path d="M7 3h1M7 9h1M7.5 3v6"/>
        </g>
        <path fill="#000" d="M5.351 7.172H3.974L3.686 8h-.642l1.343-3.555h.554L6.286 8h-.644l-.29-.828zm-1.204-.498h1.03L4.664 5.2l-.516 1.474z"/>
    </g>
</svg>
