<svg xmlns="http://www.w3.org/2000/svg" width="23" height="30" viewBox="0 0 23 30">
    <path fill="#000" fill-rule="nonzero" d="M22.164 24.933H0l.592-.956c2.341-3.78 2.37-13.18 2.37-13.274 0-4.25 3.373-7.73 7.6-7.943V.627A.63.63 0 0 1 11.192 0a.63.63 0 0 1 .632.627v2.147c4.122.321 7.377 3.755 7.377 7.929 0 .094.03 9.493 2.37 13.274l.592.956zM2.175 23.678H19.99c-2.026-4.435-2.05-12.603-2.05-12.975 0-3.693-3.026-6.698-6.746-6.698h-.222c-3.72 0-6.745 3.005-6.745 6.698 0 .372-.025 8.54-2.05 12.975zM11.082 30c-1.888 0-3.425-1.526-3.425-3.401a.63.63 0 0 1 .632-.628.63.63 0 0 1 .632.628c0 1.183.97 2.146 2.16 2.146a2.156 2.156 0 0 0 2.162-2.146.63.63 0 0 1 .632-.628.63.63 0 0 1 .631.628c0 1.875-1.536 3.401-3.424 3.401z"/>
</svg>
