<svg xmlns="http://www.w3.org/2000/svg" width="15" height="16" viewBox="0 0 15 16">
    <path fill="#333" fill-rule="nonzero" d="M13.333 16H1.6C.718 16 0 15.282 0 14.4c0-.051.012-1.27.986-2.47.56-.688 1.323-1.235 2.27-1.623 1.142-.47 2.56-.706 4.21-.706 1.652 0 3.068.238 4.212.706.946.388 1.71.935 2.27 1.624.975 1.2.985 2.418.985 2.469 0 .882-.718 1.6-1.6 1.6zM1.067 14.403c0 .294.24.53.533.53h11.733a.534.534 0 0 0 .534-.53c-.001-.037-.034-.954-.789-1.85-1.039-1.234-2.979-1.885-5.611-1.885-2.633 0-4.573.653-5.612 1.886-.754.896-.787 1.812-.788 1.85zm6.4-5.87A4.271 4.271 0 0 1 3.2 4.267 4.271 4.271 0 0 1 7.467 0a4.271 4.271 0 0 1 4.266 4.267 4.271 4.271 0 0 1-4.266 4.266zm0-7.466a3.204 3.204 0 0 0-3.2 3.2c0 1.764 1.435 3.2 3.2 3.2 1.764 0 3.2-1.436 3.2-3.2 0-1.765-1.436-3.2-3.2-3.2z"/>
</svg>
