<svg xmlns="http://www.w3.org/2000/svg" width="19" height="19" viewBox="0 0 19 19">
    <g fill="#333" fill-rule="nonzero">
        <path d="M16.218 2.782A9.438 9.438 0 0 0 9.5 0a9.44 9.44 0 0 0-6.718 2.782A9.434 9.434 0 0 0 0 9.5c0 2.538.988 4.924 2.782 6.719A9.434 9.434 0 0 0 9.5 19a9.44 9.44 0 0 0 6.718-2.782A9.435 9.435 0 0 0 19 9.499a9.437 9.437 0 0 0-2.782-6.717zM9.5 18.001C4.813 18 1 14.188 1 9.5 1 4.813 4.813 1 9.5 1 14.187 1 18 4.812 18 9.5c0 4.687-3.813 8.5-8.5 8.5z"/>
        <path d="M15.5 10h-12a.5.5 0 0 1 0-1h12a.5.5 0 0 1 0 1z"/>
    </g>
</svg>
