<svg xmlns="http://www.w3.org/2000/svg" width="20" height="20" viewBox="0 0 20 20">
    <path fill="#575757" fill-rule="nonzero" d="M7.119 2.73c.917 1.506.995 2.743.532 3.659a1.706 1.706 0 0 1-.33.465c-.175.154-.323.258-.66.477-.55.357-.743.526-.842.775-.018.045-.013.114.035.233.04.102.098.208.212.399.143.24.166.279.22.387.986 1.946 2.37 3.122 5.452 4.99.233.14.401.066.784-.373.088-.102.176-.21.37-.448.935-1.144 1.66-1.553 2.775-1.048 1.944.88 3.246 1.789 3.816 2.821.735 1.332.187 2.712-1.638 4.02-1.992 1.429-4.807.932-8.393-.638C4.307 16.197-.781 8.504.273 3.443.688 1.453 3.241-.525 5.056.28c.544.241.997.727 1.464 1.45.166.256.62 1.035.599 1zM5.72 2.262c-.372-.577-.716-.945-1.046-1.092C3.5.65 1.51 2.191 1.209 3.644c-.95 4.557 3.86 11.828 8.621 13.913 3.28 1.436 5.855 1.89 7.464.736 1.466-1.051 1.812-1.922 1.355-2.75-.44-.797-1.603-1.61-3.371-2.41-.594-.268-.961-.062-1.651.782-.19.235-.29.356-.39.47-.65.748-1.25 1.012-1.989.564-3.227-1.955-4.72-3.225-5.812-5.38a4.72 4.72 0 0 0-.187-.327 3.58 3.58 0 0 1-.281-.538c-.133-.334-.16-.653-.035-.965.202-.503.493-.76 1.213-1.227.297-.193.421-.28.532-.377.054-.07.089-.125.123-.191.305-.604.25-1.48-.496-2.703a41.92 41.92 0 0 0-.585-.979z"/>
</svg>
