<svg xmlns="http://www.w3.org/2000/svg" width="16" height="15" viewBox="0 0 16 15">
    <path fill="#333" fill-rule="evenodd" d="M4.886 7.19h6.768V3.022c0-.744-.047-1.235-.14-1.471-.071-.18-.222-.333-.45-.462a1.976 1.976 0 0 0-.978-.258H9.57V.434h6.23V.83h-.515c-.344 0-.67.082-.978.247a.903.903 0 0 0-.467.521c-.082.233-.124.707-.124 1.423v9.4c0 .738.047 1.224.14 1.46.072.18.218.334.44.463.316.172.645.258.989.258h.515V15H9.57v-.397h.516c.594 0 1.027-.176 1.3-.527.178-.229.268-.78.268-1.654V7.985H4.886v4.437c0 .738.047 1.224.14 1.46.072.18.222.334.451.463.308.172.634.258.978.258h.526V15H.74v-.397h.515c.602 0 1.039-.176 1.311-.527.172-.229.258-.78.258-1.654v-9.4c0-.744-.047-1.235-.14-1.471-.071-.18-.218-.333-.44-.462A2.036 2.036 0 0 0 1.255.83H.74V.434H6.98V.83h-.526c-.344 0-.67.082-.978.247a.93.93 0 0 0-.462.521c-.086.233-.129.707-.129 1.423V7.19z"/>
</svg>
