<svg xmlns="http://www.w3.org/2000/svg" width="20" height="20" viewBox="0 0 20 20">
    <path fill="#FFF" fill-rule="nonzero" d="M.442 19.807a.3.3 0 0 1-.3-.3V.331A.3.3 0 1 1 .71.197l1.008 2.019a.3.3 0 1 1-.537.268l-.053-.107-.387-.774v17.602h17.577l-.879-.44a.3.3 0 1 1 .268-.538l2.016 1.009a.301.301 0 0 1-.135.569h-.492l-18.654.002zM16.867 4.369h.408l-.408-.001a1.31 1.31 0 0 1-1.285 1.308l-.144.003-2.213 6.65.113.088a1.31 1.31 0 0 1-.802 2.343 1.31 1.31 0 0 1-1.235-1.74l.048-.136-3.04-2.436-.123.078a1.289 1.289 0 0 1-.848.187l-.144-.019-1.88 3.763.1.104a1.31 1.31 0 0 1-.94 2.218 1.31 1.31 0 0 1 0-2.62c.055 0 .107.003.16.01l.144.02 1.88-3.764-.1-.103a1.31 1.31 0 0 1 .94-2.218 1.31 1.31 0 0 1 1.234 1.74l-.048.136 3.04 2.435.123-.076c.199-.125.427-.193.665-.197l.144-.003 2.214-6.65-.114-.088a1.31 1.31 0 0 1 .803-2.342c.72 0 1.308.588 1.308 1.31zm-1.308-.709a.709.709 0 1 0 .001 1.417.709.709 0 0 0-.001-1.417zM7.497 8.706a.709.709 0 1 0 0 1.417.709.709 0 0 0 0-1.417zm-3.024 7.472a.709.709 0 1 0 0-1.417.709.709 0 0 0 0 1.417zm8.063-2.018a.709.709 0 1 0-.001-1.417.709.709 0 0 0 0 1.417z"/>
</svg>
