<svg xmlns="http://www.w3.org/2000/svg" width="22" height="23" viewBox="0 0 22 23">
    <g fill="none" fill-rule="evenodd">
        <path fill="#575757" fill-rule="nonzero" d="M16.444.889h-2.222V.444a.445.445 0 0 0-.889 0V.89H4.444V.444a.445.445 0 0 0-.888 0V.89H1.333C.598.889 0 1.487 0 2.222v12.445C0 15.402.598 16 1.333 16h15.111c.736 0 1.334-.598 1.334-1.333V2.222c0-.735-.598-1.333-1.334-1.333zm-15.11.889h2.222V3.11a.445.445 0 0 0 .888 0V1.778h8.89V3.11a.445.445 0 0 0 .888 0V1.778h2.222c.246 0 .445.199.445.444v2.222h-16V2.222c0-.245.199-.444.444-.444zm15.11 13.333H1.334a.445.445 0 0 1-.445-.444V5.333h16v9.334c0 .245-.2.444-.445.444z"/>
        <path fill="#FFF" d="M20.444 7.889h-2.222v-.445a.445.445 0 0 0-.889 0v.445H8.444v-.445a.445.445 0 0 0-.888 0v.445H5.333C4.598 7.889 4 8.487 4 9.222v12.445C4 22.402 4.598 23 5.333 23h15.111c.736 0 1.334-.598 1.334-1.333V9.222c0-.735-.598-1.333-1.334-1.333z"/>
        <path fill="#333" fill-rule="nonzero" d="M20.444 7.889h-2.222v-.445a.445.445 0 0 0-.889 0v.445H8.444v-.445a.445.445 0 0 0-.888 0v.445H5.333C4.598 7.889 4 8.487 4 9.222v12.445C4 22.402 4.598 23 5.333 23h15.111c.736 0 1.334-.598 1.334-1.333V9.222c0-.735-.598-1.333-1.334-1.333zm-15.11.889h2.222v1.333a.445.445 0 0 0 .888 0V8.778h8.89v1.333a.445.445 0 0 0 .888 0V8.778h2.222c.246 0 .445.199.445.444v2.222h-16V9.222c0-.245.199-.444.444-.444zm15.11 13.333H5.334a.445.445 0 0 1-.445-.444v-9.334h16v9.334c0 .245-.2.444-.445.444z"/>
    </g>
</svg>
