<svg xmlns="http://www.w3.org/2000/svg" width="22" height="18" viewBox="0 0 22 18">
    <g fill="none" fill-rule="evenodd">
        <path stroke="#333" d="M19.051 4H2.464C1.657 4 1 4.657 1 5.463v7.074C1 13.343 1.657 14 2.464 14H19.05c.807 0 1.464-.657 1.464-1.463V5.463c0-.806-.657-1.463-1.464-1.463z"/>
        <g stroke="#333" stroke-linecap="square">
            <path d="M13.45 1.35h5.4M13.45 16.65h5.4M16.15 1.35v15.3"/>
        </g>
        <path fill="#000" d="M5.351 10.172H3.974L3.686 11h-.642l1.343-3.555h.554L6.286 11h-.644l-.29-.828zm-1.204-.498h1.03L4.664 8.2l-.516 1.474zM6.55 11V7.445h1.218c.402 0 .708.08.918.242.21.161.315.401.315.72 0 .163-.044.31-.132.44a.849.849 0 0 1-.385.302c.192.052.34.15.445.295a.857.857 0 0 1 .158.518c0 .334-.107.59-.321.77-.214.178-.52.268-.92.268H6.55zm.618-1.604v1.11h.686c.194 0 .345-.047.454-.143a.506.506 0 0 0 .163-.4c0-.37-.188-.559-.566-.567h-.737zm0-.454h.605c.192 0 .342-.044.45-.13a.448.448 0 0 0 .163-.37c0-.176-.05-.303-.15-.381-.1-.079-.256-.118-.468-.118h-.6v.999zm5.109.9c-.036.38-.176.676-.42.888-.244.213-.569.319-.974.319-.283 0-.533-.067-.748-.202a1.322 1.322 0 0 1-.5-.572 2.066 2.066 0 0 1-.183-.862v-.332c0-.335.06-.63.178-.886.12-.256.29-.453.512-.591.222-.138.479-.208.77-.208.392 0 .708.107.947.32.24.214.379.515.418.904h-.615c-.03-.256-.104-.44-.224-.553-.12-.113-.295-.17-.526-.17-.268 0-.475.098-.619.294-.144.196-.217.484-.22.863v.315c0 .384.068.677.206.879.137.202.339.303.604.303.242 0 .425-.055.547-.164.122-.109.2-.29.232-.544h.615z"/>
    </g>
</svg>
