<svg xmlns="http://www.w3.org/2000/svg" width="17" height="17" viewBox="0 0 17 17">
    <path fill="#575757" fill-rule="nonzero" d="M6 11.111h5v-3H6v3zm0 1v3.111h5v-3.11H6zm9.889-1v-3H12v3h3.889zm0 1H12v3.111h3.444c.246 0 .445-.199.445-.444V12.11zm-15-1H5v-3H.889v3zm0 1v2.667c0 .245.199.444.444.444H5v-3.11H.889zm5.111-5h5V4.444H6v2.667zm9.889 0V4.444H12v2.667h3.889zm-15 0H5V4.444H.889v2.667zM15.444 0c.736 0 1.334.598 1.334 1.333v13.445c0 .735-.598 1.333-1.334 1.333H1.334A1.335 1.335 0 0 1 0 14.778V1.333C0 .598.598 0 1.333 0h14.111zM1.334.889c-.246 0-.445.199-.445.444v2.223h15V1.333c0-.245-.2-.444-.445-.444H1.334z"/>
</svg>
