<svg xmlns="http://www.w3.org/2000/svg" width="13" height="20" viewBox="0 0 13 20">
    <path fill="#666" fill-rule="nonzero" d="M6.364.714c3.123.001 5.655 2.56 5.656 5.715 0 1.916-1.064 4.782-3.08 8.289a58.047 58.047 0 0 1-2.576 4.06 57.515 57.515 0 0 1-2.57-4.046C1.773 11.218.706 8.347.706 6.43.708 3.273 3.24.715 6.364.714zm0-.714C2.849 0 0 2.878 0 6.429 0 11.429 6.364 20 6.364 20s6.363-8.571 6.363-13.571C12.727 2.879 9.878 0 6.364 0zm0 3.571c-1.562 0-2.829 1.28-2.829 2.858s1.267 2.857 2.829 2.857c1.562 0 2.828-1.28 2.828-2.857C9.19 4.85 7.925 3.573 6.364 3.57zm0 4.951c-.839 0-1.595-.51-1.916-1.292a2.11 2.11 0 0 1 .45-2.282 2.057 2.057 0 0 1 2.258-.454 2.094 2.094 0 0 1 1.28 1.935c0 .555-.219 1.087-.607 1.48a2.06 2.06 0 0 1-1.465.613z"/>
</svg>
