<?xml version="1.0" encoding="UTF-8"?>
<svg width="480px" height="190px" viewBox="0 0 480 190" version="1.1" xmlns="http://www.w3.org/2000/svg" xmlns:xlink="http://www.w3.org/1999/xlink">
    <!-- Generator: Sketch 48.2 (47327) - http://www.bohemiancoding.com/sketch -->
    <title>IDLink logo horizontal/idlink logo horizontal</title>
    <desc>Created with Sketch.</desc>
    <defs></defs>
    <g id="concepts" stroke="none" stroke-width="1" fill="none" fill-rule="evenodd">
        <g id="IDLink-logo-horizontal/idlink-logo-horizontal">
            <g id="id">
                <path d="M88.4444444,133.729129 C90.7160607,138.855915 93.7777585,143.341786 97.6296296,147.186875 C101.481501,151.031965 106.024665,154.088273 111.259259,156.35589 C116.493853,158.623507 121.97528,159.757298 127.703704,159.757298 C133.432127,159.757298 138.864172,158.623507 144,156.35589 C149.135828,154.088273 153.678993,151.031965 157.62963,147.186875 C161.580267,143.341786 164.691347,138.855915 166.962963,133.729129 C167.786761,131.869908 168.461183,129.958832 168.986229,127.995895 L164.697813,121.158706 L178.883393,129.191629 L196.647597,138.459585 L194.790479,142.332817 C194.468716,143.116752 194.131149,143.896743 193.777778,144.672791 C189.827141,153.348891 184.493861,160.940364 177.777778,167.447439 C171.061695,173.954514 163.40745,179.130518 154.814815,182.975608 C146.222179,186.820697 137.185233,188.743213 127.703704,188.743213 C118.024643,188.743213 108.83955,186.869993 100.148148,183.123495 C91.4567467,179.376998 83.8518844,174.250288 77.3333333,167.743213 C70.8147822,161.236139 65.6296489,153.644665 61.7777778,144.968566 C57.9259067,136.292466 56,127.024953 56,117.165749 C56,116.143281 56.015937,115.132632 56.0478111,114.133803 L86.8417448,129.454413 C87.2918012,130.908541 87.8260342,132.333446 88.4444444,133.729129 Z" id="Combined-Shape-Copy" fill="#333333"></path>
                <path d="M146.487438,80.0126835 C145.833341,79.7205227 145.16902,79.3952871 144.494476,79.084507 C139.358648,76.718298 133.926603,75.5352113 128.198179,75.5352113 C122.469756,75.5352113 116.988329,76.6690027 111.753735,78.9366197 C106.519141,81.2042367 101.975977,84.2605442 98.1241054,88.1056338 C95.8801112,90.3456773 93.9042945,92.8199263 92.1966371,95.5284077 L94.6721321,100.42285 L64,85.1628392 C67.3141702,78.8800222 71.7258827,72.9102879 77.2352165,67.2535211 C84.543895,60.6478528 92.5931973,55.422553 101.383365,51.8732394 C110.173532,48.3239259 119.210479,46.5492958 128.494476,46.5492958 C134.025368,46.5492958 140.593203,47.4366108 148.198179,49.2112676 C155.803156,50.9859244 163.358636,54.4365941 170.864846,59.5633803 L170.864846,0 L200,13.3098592 L200,107.478873 L146.487438,80.0126835 Z" id="Path-Copy-6" fill="#333333"></path>
                <polygon id="Path-Copy-7" fill="#03D0BF" points="33.4337393 70.6295942 28.263004 67.9957475 0 53.9343269 0 27.6197183 30.6666667 42.9507168 30.6666667 64.6112466"></polygon>
                <polygon id="Path-Copy-8" fill="#333333" points="0 87.5140845 30.6666667 102.845083 30.6666667 189.056112 0 189.056112"></polygon>
            </g>
            <path d="M280,95 L289.430088,95 L289.430088,118.892578 L302.759154,118.892578 L302.759154,126.781209 L280,126.781209 L280,95 Z M336.692535,95 L346.122623,95 L346.122623,126.781209 L336.692535,126.781209 L336.692535,95 Z M403.676561,95 L412.290583,95 L412.290583,126.781209 L404.265941,126.781209 L390.800864,109.099795 L390.800864,126.781209 L382.141505,126.781209 L382.141505,95 L390.211484,95 L403.676561,112.726751 L403.676561,95 Z M480,126.781209 L468.711097,126.781209 L461.275835,115.084273 L457.739552,118.983252 L457.739552,126.781209 L448.309465,126.781209 L448.309465,95 L457.739552,95 L457.739552,107.739686 L468.393738,95 L479.274609,95 L467.713684,107.875697 L480,126.781209 Z" id="LINK-Copy-2" fill="#333333"></path>
        </g>
    </g>
</svg>