<?xml version="1.0" encoding="UTF-8"?>
<svg width="200px" height="200px" viewBox="0 0 200 200" version="1.1" xmlns="http://www.w3.org/2000/svg" xmlns:xlink="http://www.w3.org/1999/xlink">
    <!-- Generator: Sketch 48.2 (47327) - http://www.bohemiancoding.com/sketch -->
    <title>idlink id logo</title>
    <desc>Created with Sketch.</desc>
    <defs></defs>
    <g id="concepts" stroke="none" stroke-width="1" fill="none" fill-rule="evenodd">
        <g id="idlink-id-logo">
            <g id="id">
                <path d="M88.4444444,132.963219 C90.7160607,138.099047 93.7777585,142.59283 97.6296296,146.444701 C101.481501,150.296572 106.024665,153.35827 111.259259,155.629886 C116.493853,157.901502 121.97528,159.037293 127.703704,159.037293 C133.432127,159.037293 138.864172,157.901502 144,155.629886 C149.135828,153.35827 153.678993,150.296572 157.62963,146.444701 C161.580267,142.59283 164.691347,138.099047 166.962963,132.963219 C167.786761,131.100719 168.461183,129.186273 168.986229,127.219874 L164.697813,120.370627 L178.883393,128.417717 L196.647597,137.702018 L194.790479,141.582082 C194.468716,142.367398 194.131149,143.148765 193.777778,143.926182 C189.827141,152.617584 184.493861,160.222446 177.777778,166.740997 C171.061695,173.259548 163.40745,178.444681 154.814815,182.296552 C146.222179,186.148424 137.185233,188.07433 127.703704,188.07433 C118.024643,188.07433 108.83955,186.197806 100.148148,182.444701 C91.4567467,178.691595 83.8518844,173.555844 77.3333333,167.037293 C70.8147822,160.518742 65.6296489,152.91388 61.7777778,144.222478 C57.9259067,135.531077 56,126.247219 56,116.370627 C56,115.346355 56.015937,114.333924 56.0478111,113.333333 L86.8417448,128.680964 C87.2918012,130.137657 87.8260342,131.565074 88.4444444,132.963219 Z" id="Combined-Shape-Copy" fill="#333333"></path>
                <path d="M146.487438,79.1520357 C145.833341,78.8593596 145.16902,78.5335503 144.494476,78.2222222 C139.358648,75.85184 133.926603,74.6666667 128.198179,74.6666667 C122.469756,74.6666667 116.988329,75.8024578 111.753735,78.0740741 C106.519141,80.3456904 101.975977,83.4073881 98.1241054,87.2592593 C95.8801112,89.5032535 93.9042945,91.9818662 92.1966371,94.6951245 L94.6721321,99.598199 L64,84.3112745 C67.3141702,78.0173767 71.7258827,72.0371138 77.2352165,66.3703704 C84.543895,59.7530519 92.5931973,54.5185363 101.383365,50.962963 C110.173532,47.4073896 119.210479,45.6296296 128.494476,45.6296296 C134.025368,45.6296296 140.593203,46.5185096 148.198179,48.2962963 C155.803156,50.074083 163.358636,53.5308385 170.864846,58.6666667 L170.864846,0 L200,13.3333333 L200,106.666667 L146.487438,79.1520357 Z" id="Path-Copy-6" fill="#333333"></path>
                <polygon id="Path-Copy-7" fill="#03D0BF" points="33.4337393 69.7523977 28.263004 67.1139058 0 53.0276855 0 26.6666667 30.6666667 42.024704 30.6666667 63.7234357"></polygon>
                <polygon id="Path-Copy-8" fill="#333333" points="0 86.6666667 30.6666667 102.024704 30.6666667 201.721114 0 188.387781"></polygon>
            </g>
        </g>
    </g>
</svg>