<?xml version="1.0" encoding="UTF-8"?>
<svg width="620px" height="190px" viewBox="0 0 620 190" version="1.1" xmlns="http://www.w3.org/2000/svg" xmlns:xlink="http://www.w3.org/1999/xlink">
    <!-- Generator: Sketch 48.2 (47327) - http://www.bohemiancoding.com/sketch -->
    <title>IDLink logo url/idlink logo url</title>
    <desc>Created with Sketch.</desc>
    <defs></defs>
    <g id="concepts" stroke="none" stroke-width="1" fill="none" fill-rule="evenodd">
        <g id="IDLink-logo-url/idlink-logo-url">
            <path d="M349.95975,131.376994 L340.794336,131.376994 L340.794336,98.5037097 L349.95975,98.5037097 L349.95975,131.376994 Z M341.527569,94.3487221 C340.509185,93.2896023 340,92.0064572 340,90.4992483 C340,88.9920394 340.519368,87.719078 341.55812,86.6803259 C342.596872,85.6415738 343.869834,85.1222055 345.377043,85.1222055 C346.884252,85.1222055 348.157213,85.6415738 349.195965,86.6803259 C350.234717,87.719078 350.754086,88.9920394 350.754086,90.4992483 C350.754086,92.0064572 350.234717,93.2794186 349.195965,94.3181707 C348.157213,95.3569228 346.884252,95.8762911 345.377043,95.8762911 C343.869834,95.8762911 342.586689,95.3671065 341.527569,94.3487221 Z M375.168033,131.865816 C371.298172,131.865816 367.835717,130.216058 364.780564,126.916493 C361.72541,123.616927 360.197857,119.523083 360.197857,114.634838 C360.197857,109.746593 361.684676,105.744402 364.658358,102.628146 C367.632041,99.5118896 371.114863,97.9537849 375.10693,97.9537849 C379.098997,97.9537849 382.357778,99.3591343 384.883371,102.169875 L384.883371,86.0387469 L394.048785,86.0387469 L394.048785,131.376994 L384.883371,131.376994 L384.883371,127.038698 C382.317043,130.256793 379.078629,131.865816 375.168033,131.865816 Z M369.424373,115.001455 C369.424373,117.649254 370.218701,119.81838 371.807381,121.508898 C373.396061,123.199417 375.249492,124.044663 377.367732,124.044663 C379.485971,124.044663 381.288485,123.199417 382.775326,121.508898 C384.262167,119.81838 385.005577,117.63907 385.005577,114.970903 C385.005577,112.302736 384.262167,110.082691 382.775326,108.310703 C381.288485,106.538714 379.465604,105.652732 377.306629,105.652732 C375.147654,105.652732 373.294222,106.548897 371.746278,108.341254 C370.198334,110.13361 369.424373,112.353655 369.424373,115.001455 Z M413.574511,131.376994 L406.731002,131.376994 L406.731002,86.0387469 L413.574511,86.0387469 L413.574511,131.376994 Z M433.711265,131.376994 L426.867756,131.376994 L426.867756,98.8703263 L433.711265,98.8703263 L433.711265,131.376994 Z M427.295476,92.3934338 C426.440033,91.5379909 426.012318,90.5196218 426.012318,89.3382959 C426.012318,88.15697 426.440033,87.1386008 427.295476,86.2831579 C428.150919,85.427715 429.169288,85 430.350614,85 C431.531939,85 432.550309,85.427715 433.405752,86.2831579 C434.261194,87.1386008 434.688909,88.15697 434.688909,89.3382959 C434.688909,90.5196218 434.261194,91.5379909 433.405752,92.3934338 C432.550309,93.2488767 431.531939,93.6765918 430.350614,93.6765918 C429.169288,93.6765918 428.150919,93.2488767 427.295476,92.3934338 Z M453.848019,113.779399 L453.848019,131.376994 L447.00451,131.376994 L447.00451,98.8703263 L453.848019,98.8703263 L453.848019,104.797294 C454.947874,102.80126 456.465244,101.232972 458.400175,100.092381 C460.335105,98.9517909 462.422762,98.3815042 464.663208,98.3815042 C468.329391,98.3815042 471.292846,99.5017102 473.553659,101.742156 C475.814472,103.982602 476.944862,107.221015 476.944862,111.457495 L476.944862,131.376994 L470.101353,131.376994 L470.101353,113.534988 C470.101353,107.546888 467.616532,104.552883 462.646816,104.552883 C460.284165,104.552883 458.227059,105.337027 456.475438,106.905339 C454.723817,108.473651 453.848019,110.764982 453.848019,113.779399 Z M496.714999,131.376994 L489.87149,131.376994 L489.87149,86.0387469 L496.714999,86.0387469 L496.714999,112.67955 L509.913195,98.8703263 L518.711993,98.8703263 L506.369235,111.763008 L519.628534,131.376994 L511.318559,131.376994 L501.664323,117.140051 L496.714999,122.150477 L496.714999,131.376994 Z M529.133408,130.521555 C528.277965,129.625377 527.85025,128.545906 527.85025,127.283109 C527.85025,126.020312 528.288149,124.951025 529.163959,124.075214 C530.03977,123.199404 531.109057,122.761505 532.371854,122.761505 C533.634651,122.761505 534.714122,123.199404 535.6103,124.075214 C536.506479,124.951025 536.954561,126.020312 536.954561,127.283109 C536.954561,128.545906 536.506479,129.625377 535.6103,130.521555 C534.714122,131.417734 533.634651,131.865816 532.371854,131.865816 C531.109057,131.865816 530.029586,131.417734 529.133408,130.521555 Z M579.516027,118.117695 L554.036177,118.117695 C554.199118,120.480347 555.27859,122.384697 557.274623,123.830803 C559.270657,125.276909 561.551803,125.999951 564.118132,125.999951 C568.19167,125.999951 571.287512,124.716806 573.405752,122.150477 L577.316328,126.427671 C573.813086,130.053119 569.250792,131.865816 563.62931,131.865816 C559.066948,131.865816 555.186962,130.348446 551.989235,127.313661 C548.791507,124.278875 547.192668,120.205398 547.192668,115.093109 C547.192668,109.980819 548.822059,105.917526 552.080889,102.903108 C555.339719,99.8886905 559.17897,98.3815042 563.598759,98.3815042 C568.018547,98.3815042 571.776329,99.7155678 574.872218,102.383735 C577.968106,105.051902 579.516027,108.728215 579.516027,113.412783 L579.516027,118.117695 Z M554.036177,112.740653 L572.672518,112.740653 C572.672518,110.011382 571.817088,107.913542 570.106203,106.447068 C568.395317,104.980595 566.287293,104.247369 563.782067,104.247369 C561.276841,104.247369 559.026246,105.011146 557.030212,106.538722 C555.034179,108.066299 554.036177,110.133588 554.036177,112.740653 Z M613.156491,116.467921 L613.156491,98.8703263 L620,98.8703263 L620,131.376994 L613.156491,131.376994 L613.156491,125.450026 C612.056636,127.44606 610.539266,129.014348 608.604335,130.154939 C606.669405,131.295529 604.581748,131.865816 602.341303,131.865816 C598.675119,131.865816 595.711665,130.74561 593.450851,128.505164 C591.190038,126.264719 590.059648,123.026305 590.059648,118.789826 L590.059648,98.8703263 L596.903157,98.8703263 L596.903157,116.712332 C596.903157,122.700432 599.387978,125.694437 604.357694,125.694437 C606.720346,125.694437 608.777451,124.910293 610.529072,123.341981 C612.280694,121.773669 613.156491,119.482339 613.156491,116.467921 Z" id="idlink.eu-copy" fill="#333333"></path>
            <g id="id">
                <path d="M88.4444444,133.729129 C90.7160607,138.855915 93.7777585,143.341786 97.6296296,147.186875 C101.481501,151.031965 106.024665,154.088273 111.259259,156.35589 C116.493853,158.623507 121.97528,159.757298 127.703704,159.757298 C133.432127,159.757298 138.864172,158.623507 144,156.35589 C149.135828,154.088273 153.678993,151.031965 157.62963,147.186875 C161.580267,143.341786 164.691347,138.855915 166.962963,133.729129 C167.786761,131.869908 168.461183,129.958832 168.986229,127.995895 L164.697813,121.158706 L178.883393,129.191629 L196.647597,138.459585 L194.790479,142.332817 C194.468716,143.116752 194.131149,143.896743 193.777778,144.672791 C189.827141,153.348891 184.493861,160.940364 177.777778,167.447439 C171.061695,173.954514 163.40745,179.130518 154.814815,182.975608 C146.222179,186.820697 137.185233,188.743213 127.703704,188.743213 C118.024643,188.743213 108.83955,186.869993 100.148148,183.123495 C91.4567467,179.376998 83.8518844,174.250288 77.3333333,167.743213 C70.8147822,161.236139 65.6296489,153.644665 61.7777778,144.968566 C57.9259067,136.292466 56,127.024953 56,117.165749 C56,116.143281 56.015937,115.132632 56.0478111,114.133803 L86.8417448,129.454413 C87.2918012,130.908541 87.8260342,132.333446 88.4444444,133.729129 Z" id="Combined-Shape-Copy" fill="#333333"></path>
                <path d="M146.487438,80.0126835 C145.833341,79.7205227 145.16902,79.3952871 144.494476,79.084507 C139.358648,76.718298 133.926603,75.5352113 128.198179,75.5352113 C122.469756,75.5352113 116.988329,76.6690027 111.753735,78.9366197 C106.519141,81.2042367 101.975977,84.2605442 98.1241054,88.1056338 C95.8801112,90.3456773 93.9042945,92.8199263 92.1966371,95.5284077 L94.6721321,100.42285 L64,85.1628392 C67.3141702,78.8800222 71.7258827,72.9102879 77.2352165,67.2535211 C84.543895,60.6478528 92.5931973,55.422553 101.383365,51.8732394 C110.173532,48.3239259 119.210479,46.5492958 128.494476,46.5492958 C134.025368,46.5492958 140.593203,47.4366108 148.198179,49.2112676 C155.803156,50.9859244 163.358636,54.4365941 170.864846,59.5633803 L170.864846,0 L200,13.3098592 L200,107.478873 L146.487438,80.0126835 Z" id="Path-Copy-6" fill="#333333"></path>
                <polygon id="Path-Copy-7" fill="#03D0BF" points="33.4337393 70.6295942 28.263004 67.9957475 0 53.9343269 0 27.6197183 30.6666667 42.9507168 30.6666667 64.6112466"></polygon>
                <polygon id="Path-Copy-8" fill="#333333" points="0 87.5140845 30.6666667 102.845083 30.6666667 189.056112 0 189.056112"></polygon>
            </g>
        </g>
    </g>
</svg>