<?xml version="1.0" encoding="UTF-8"?>
<svg width="200px" height="200px" viewBox="0 0 200 200" version="1.1" xmlns="http://www.w3.org/2000/svg" xmlns:xlink="http://www.w3.org/1999/xlink">
    <!-- Generator: Sketch 48.2 (47327) - http://www.bohemiancoding.com/sketch -->
    <title>safeprofile circle logo</title>
    <desc>Created with Sketch.</desc>
    <defs></defs>
    <g id="final" stroke="none" stroke-width="1" fill="none" fill-rule="evenodd">
        <g id="safeprofile-circle-logo">
            <circle id="Oval" fill="#F05858" cx="100" cy="100" r="100"></circle>
            <path d="M139.261344,94.1150358 C140.098896,94.1150358 140.8806,93.9609924 141.606478,93.652901 C142.332356,93.3448096 142.96749,92.9176892 143.511899,92.3715271 C144.056308,91.8253651 144.482057,91.1811835 144.789159,90.4389633 C145.096262,89.696743 145.249811,88.9055201 145.249811,88.0652707 C145.249811,87.2250214 145.096262,86.4408004 144.789159,85.7125843 C144.482057,84.9843682 144.056308,84.3471887 143.511899,83.8010266 C142.96749,83.2548645 142.332356,82.8277442 141.606478,82.5196527 C140.8806,82.2115613 140.098896,82.0575179 139.261344,82.0575179 L63.0072763,82.0575179 C62.1697244,82.0575179 61.388021,82.2115613 60.6621426,82.5196527 C59.9362643,82.8277442 59.3011303,83.2548645 58.7567215,83.8010266 C58.2123128,84.3471887 57.7865636,84.9843682 57.4794612,85.7125843 C57.1723589,86.4408004 57.01881,87.2250214 57.01881,88.0652707 C57.01881,88.9055201 57.1723589,89.696743 57.4794612,90.4389633 C57.7865636,91.1811835 58.2123128,91.8253651 58.7567215,92.3715271 C59.3011303,92.9176892 59.9362643,93.3448096 60.6621426,93.652901 C61.388021,93.9609924 62.1697244,94.1150358 63.0072763,94.1150358 L75.0260863,94.1150358 C77.5108236,94.1150358 79.8489543,94.584168 82.0405485,95.5224464 C84.2321427,96.4607249 86.1445243,97.7490879 87.7777505,99.3875741 C89.4109768,101.02606 90.6952038,102.944601 91.6304701,105.143253 C92.5657364,107.341906 93.0333626,109.687567 93.0333626,112.180307 C93.0333626,114.673046 92.5657364,117.011705 91.6304701,119.196354 C90.6952038,121.381002 89.4109768,123.29254 87.7777505,124.931027 C86.1445243,126.569513 84.2321427,127.864878 82.0405485,128.817161 C79.8489543,129.769443 77.5108236,130.245577 75.0260863,130.245577 L48.3501909,130.245577 L48.3501909,118.188059 L75.0260863,118.188059 C75.8636382,118.188059 76.6453416,118.034016 77.3712199,117.725925 C78.0970983,117.417833 78.7322323,116.990713 79.276641,116.444551 C79.8210498,115.898389 80.2467989,115.261209 80.5539013,114.532993 C80.8610037,113.804777 81.0145526,113.020556 81.0145526,112.180307 C81.0145526,111.340057 80.8610037,110.555836 80.5539013,109.82762 C80.2467989,109.099404 79.8210498,108.462224 79.276641,107.916062 C78.7322323,107.3699 78.0970983,106.94278 77.3712199,106.634689 C76.6453416,106.326597 75.8636382,106.172554 75.0260863,106.172554 L63.0072763,106.172554 C60.5225389,106.172554 58.1913877,105.69642 56.0137527,104.744137 C53.8361177,103.791854 51.9307157,102.496489 50.2974894,100.858003 C48.6642632,99.2195169 47.3730567,97.3009763 46.4238311,95.1023239 C45.4746056,92.9036714 45,90.5580105 45,88.0652707 C45,85.572531 45.4746056,83.233872 46.4238311,81.0492237 C47.3730567,78.8645754 48.6642632,76.9530368 50.2974894,75.3145506 C51.9307157,73.6760643 53.8361177,72.3806994 56.0137527,71.4284168 C58.1913877,70.4761342 60.5225389,70 63.0072763,70 L139.261344,70 C141.746082,70 144.077233,70.4761342 146.254868,71.4284168 C148.432503,72.3806994 150.337905,73.6760643 151.971131,75.3145506 C153.604358,76.9530368 154.895564,78.8645754 155.84479,81.0492237 C156.794015,83.233872 157.268621,85.572531 157.268621,88.0652707 C157.268621,90.5580105 156.794015,92.9036714 155.84479,95.1023239 C154.895564,97.3009763 153.604358,99.2195169 151.971131,100.858003 C150.337905,102.496489 148.432503,103.791854 146.254868,104.744137 C144.077233,105.69642 141.746082,106.154854 139.261344,106.154854 L117.371879,106.154854 L117.371879,130.245577 L105.353069,130.245577 L105.353069,94.1150358 L139.261344,94.1150358 Z" id="sp_logo" fill="#FFFFFF"></path>
        </g>
    </g>
</svg>