<svg xmlns="http://www.w3.org/2000/svg" width="22" height="20" viewBox="0 0 22 20">
    <path fill="#9B9B9B" fill-rule="nonzero" d="M13.78 0C9.378 0 5.81 3.359 5.81 7.501c0 1.508.48 2.903 1.295 4.08l-6.41 6.032a.588.588 0 0 0 0 .875l1.412 1.328a.68.68 0 0 0 .93 0l6.409-6.032a8.265 8.265 0 0 0 4.334 1.219c4.402 0 7.97-3.359 7.97-7.502C21.75 3.36 18.182 0 13.78 0zm0 1.875c3.301 0 5.977 2.52 5.977 5.626 0 3.108-2.676 5.627-5.977 5.627-3.302 0-5.978-2.52-5.978-5.627 0-3.107 2.676-5.626 5.978-5.626z"/>
</svg>
