<svg xmlns="http://www.w3.org/2000/svg" width="78" height="78" viewBox="0 0 78 78">
    <g fill="none" fill-rule="evenodd">
        <circle cx="38.99" cy="38.99" r="38.99" fill="#FF514E"/>
        <path fill="#FFF" d="M54.298 36.696a2.316 2.316 0 0 0 1.658-.68 2.3 2.3 0 0 0 .498-.754c.12-.289.18-.598.18-.925a2.336 2.336 0 0 0-.678-1.663 2.315 2.315 0 0 0-1.658-.68H24.567a2.316 2.316 0 0 0-2.335 2.343c0 .327.06.636.18.925a2.3 2.3 0 0 0 2.155 1.434h4.686c.969 0 1.88.183 2.735.548.854.366 1.6.869 2.237 1.507a7.057 7.057 0 0 1 1.502 2.245c.365.857.547 1.771.547 2.743s-.182 1.884-.547 2.736a7.082 7.082 0 0 1-1.502 2.236 7.145 7.145 0 0 1-2.237 1.515 6.788 6.788 0 0 1-2.735.557H18.852v-4.701h10.4a2.316 2.316 0 0 0 2.336-2.343 2.336 2.336 0 0 0-.678-1.662 2.315 2.315 0 0 0-1.657-.68h-4.686a6.73 6.73 0 0 1-2.727-.557 7.172 7.172 0 0 1-2.229-1.515 7.17 7.17 0 0 1-1.51-2.244 6.848 6.848 0 0 1-.555-2.744c0-.972.185-1.884.555-2.736a7.197 7.197 0 0 1 1.51-2.236 7.172 7.172 0 0 1 2.229-1.515 6.73 6.73 0 0 1 2.727-.557h29.731a6.73 6.73 0 0 1 2.727.557c.85.371 1.592.876 2.229 1.515a7.197 7.197 0 0 1 1.51 2.236 6.79 6.79 0 0 1 .555 2.736c0 .972-.185 1.886-.555 2.744a7.17 7.17 0 0 1-1.51 2.244 7.172 7.172 0 0 1-2.229 1.515c-.849.371-1.758.55-2.727.55h-8.534v9.393h-4.687V36.696h13.221z"/>
    </g>
</svg>
