<svg xmlns="http://www.w3.org/2000/svg" width="45" height="25" viewBox="0 0 45 25">
    <path fill="#FFF" fill-rule="evenodd" d="M37.705 9.646a2.376 2.376 0 0 0 1.7-.697 2.36 2.36 0 0 0 .51-.773c.124-.297.185-.614.185-.95a2.397 2.397 0 0 0-.695-1.706 2.375 2.375 0 0 0-1.7-.697H7.203a2.376 2.376 0 0 0-2.395 2.403c0 .336.06.653.184.95a2.36 2.36 0 0 0 2.21 1.47h4.808c.994 0 1.93.188 2.806.563.877.375 1.642.89 2.295 1.546a7.24 7.24 0 0 1 1.541 2.302c.374.88.561 1.818.561 2.815 0 .997-.187 1.933-.56 2.807a7.266 7.266 0 0 1-1.542 2.293 7.33 7.33 0 0 1-2.295 1.555 6.964 6.964 0 0 1-2.806.571H1.34v-4.823h10.67a2.376 2.376 0 0 0 2.396-2.403 2.397 2.397 0 0 0-.695-1.706 2.375 2.375 0 0 0-1.7-.697H7.202c-.994 0-1.926-.19-2.797-.571a7.358 7.358 0 0 1-2.287-1.555 7.357 7.357 0 0 1-1.55-2.302A7.025 7.025 0 0 1 0 7.226C0 6.23.19 5.294.57 4.42a7.384 7.384 0 0 1 1.549-2.294A7.358 7.358 0 0 1 4.406.57 6.905 6.905 0 0 1 7.203 0h30.502c.993 0 1.926.19 2.797.571.871.381 1.633.9 2.286 1.555a7.384 7.384 0 0 1 1.55 2.294c.38.874.57 1.809.57 2.806 0 .997-.19 1.935-.57 2.815a7.357 7.357 0 0 1-1.55 2.302 7.358 7.358 0 0 1-2.286 1.555 6.9 6.9 0 0 1-2.797.564h-8.756v9.636H24.14V9.646h13.564z"/>
</svg>
