<?xml version="1.0" encoding="UTF-8"?>
<svg width="20px" height="20px" viewBox="0 0 20 20" version="1.1" xmlns="http://www.w3.org/2000/svg" xmlns:xlink="http://www.w3.org/1999/xlink">
    <!-- Generator: Sketch 49.3 (51167) - http://www.bohemiancoding.com/sketch -->
    <title>icon/calendar</title>
    <desc>Created with Sketch.</desc>
    <defs></defs>
    <g id="icon/calendar" stroke="none" stroke-width="1" fill="none" fill-rule="evenodd">
        <path d="M18.6062499,2.02500013 L15.95,2.02500013 L15.95,1.39374949 C15.95,1.18333546 15.7791644,1.0125 15.56875,1.0125 C15.3583355,1.0125 15.1874999,1.18333544 15.1874999,1.39374949 L15.1874999,2.02500013 L4.81249994,2.02500013 L4.81249994,1.39374949 C4.81249994,1.18333546 4.64166435,1.0125 4.43124999,1.0125 C4.22083564,1.0125 4.05000005,1.18333546 4.05000005,1.39374949 L4.05000005,2.02500013 L1.39374996,2.02500013 C0.625448035,2.02500013 0,2.650448 0,3.41874975 L0,17.5937504 C0,18.3620521 0.625448035,18.9875 1.39374996,18.9875 L18.6062499,18.9875 C19.3745519,18.9875 20,18.3620521 20,17.5937504 L20,3.41874975 C20,2.65044798 19.3745519,2.02500013 18.6062499,2.02500013 Z M1.39374996,2.78750025 L4.05000005,2.78750025 L4.05000005,4.43124987 C4.05000005,4.64166421 4.22083594,4.8125005 4.43124999,4.8125005 C4.64166405,4.8125005 4.81249994,4.64166421 4.81249994,4.43124987 L4.81249994,2.78750025 L15.1874999,2.78750025 L15.1874999,4.43124987 C15.1874999,4.64166422 15.3583359,4.8125005 15.56875,4.8125005 C15.7791641,4.8125005 15.95,4.64166421 15.95,4.43124987 L15.95,2.78750025 L18.6062499,2.78750025 C18.9547355,2.78750025 19.2375,3.07026446 19.2375,3.41874974 L19.2375,6.07499949 L0.762500011,6.07499949 L0.762500011,3.41874974 C0.762500011,3.07026448 1.04526446,2.78750025 1.39374996,2.78750025 Z M18.6062499,18.2249999 L1.39374996,18.2249999 C1.04526446,18.2249999 0.762500011,17.9422356 0.762500011,17.5937504 L0.762500011,6.83749961 L19.2375,6.83749961 L19.2375,17.5937504 C19.2375,17.9422356 18.9547355,18.2249999 18.6062499,18.2249999 Z" id="calendar" fill="#333333" fill-rule="nonzero"></path>
    </g>
</svg>