<?xml version="1.0" encoding="UTF-8"?>
<svg width="20px" height="20px" viewBox="0 0 20 20" version="1.1" xmlns="http://www.w3.org/2000/svg" xmlns:xlink="http://www.w3.org/1999/xlink">
    <!-- Generator: Sketch 49.3 (51167) - http://www.bohemiancoding.com/sketch -->
    <title>nav/clock</title>
    <desc>Created with Sketch.</desc>
    <defs></defs>
    <g id="nav/clock" stroke="none" stroke-width="1" fill="none" fill-rule="evenodd">
        <g id="clock" fill="#FFFFFF" fill-rule="nonzero">
            <path d="M17.071579,2.92857518 C15.1831579,1.04005473 12.6715789,0 10,0 C7.32842111,0 4.81789475,1.04005473 2.92842103,2.92857518 C1.03999993,4.81709563 0,7.32880678 0,9.99947365 C0,12.6701405 1.03999993,15.1818517 2.92842103,17.0714248 C4.81684214,18.960998 7.32842111,20 10,20 C12.6715789,20 15.1821052,18.9599453 17.071579,17.0714248 C18.9610527,15.1829043 20,12.6711932 20,9.99947365 C20,7.3277541 18.9600001,4.81709563 17.071579,2.92857518 Z M9.99726351,18.9483657 C5.0632309,18.9483657 1.04926318,14.9344702 1.04926318,10.0005263 C1.04926318,5.06658245 5.0632309,1.05268698 9.99726351,1.05268698 C14.9312961,1.05268698 18.9452638,5.06658245 18.9452638,10.0005263 C18.9452638,14.9344702 14.9312961,18.9483657 9.99726351,18.9483657 Z M10.0150922,3.68473147 C9.72484615,3.6843565 9.48956649,3.91930397 9.4899656,4.20915416 L9.49833024,10.1760311 L5.03900906,12.248233 C4.77642636,12.3704706 4.66287344,12.6829803 4.78597913,12.9455319 C4.9090848,13.2080836 5.22232535,13.3223162 5.48490804,13.2000786 L10.2479613,10.986988 C10.2493974,10.9866055 10.249922,10.9856967 10.2513582,10.985314 C10.2610243,10.9812013 10.2703035,10.9756535 10.2795825,10.9701055 C10.2815432,10.9688142 10.2849402,10.9671404 10.286901,10.965849 C10.29618,10.960301 10.3054592,10.9547531 10.3138268,10.9486788 L10.3197092,10.9448048 C10.3295129,10.938348 10.3384052,10.931365 10.3487337,10.9239994 C10.3537044,10.919599 10.3595867,10.9157248 10.3650821,10.9104155 C10.3695283,10.9069241 10.3725383,10.903815 10.3769844,10.9003235 C10.3824797,10.8950142 10.3874505,10.8906137 10.392946,10.8853045 C10.395956,10.8821955 10.3994907,10.8781776 10.4025006,10.8750686 C10.407996,10.8697593 10.4125799,10.8639237 10.4175508,10.8595233 C10.4210854,10.8555055 10.4240955,10.8523963 10.4276301,10.8483784 C10.4316893,10.8434517 10.4362732,10.8376161 10.4403325,10.8326893 C10.444392,10.8277626 10.4475397,10.8223096 10.451599,10.8173828 C10.4551336,10.8133648 10.4582814,10.8079118 10.461816,10.8038939 C10.4690231,10.7935139 10.474794,10.7835167 10.4810896,10.7726105 C10.4910576,10.7553423 10.5001141,10.7375479 10.5082592,10.7192272 L10.5087838,10.7183183 C10.5164041,10.7009062 10.5227262,10.6815328 10.5285235,10.6630681 C10.5290481,10.6621593 10.5291859,10.6598153 10.5297106,10.6589063 C10.5349834,10.6413506 10.5393446,10.6232684 10.5418829,10.6041336 C10.5425453,10.6008807 10.542683,10.5985368 10.5428209,10.5961926 C10.545746,10.5784929 10.5477596,10.5602669 10.5483371,10.5424236 C10.5480881,10.5386443 10.5487505,10.5353915 10.5485014,10.5316123 C10.5489146,10.5245801 10.5488034,10.5184568 10.5492168,10.5114247 L10.540723,4.21001698 C10.5403239,3.92016679 10.3044267,3.68458009 10.0141807,3.68420513 L10.0150922,3.68473147 Z" id="Shape"></path>
        </g>
    </g>
</svg>