<?xml version="1.0" encoding="UTF-8"?>
<svg width="20px" height="20px" viewBox="0 0 20 20" version="1.1" xmlns="http://www.w3.org/2000/svg" xmlns:xlink="http://www.w3.org/1999/xlink">
    <!-- Generator: Sketch 49.3 (51167) - http://www.bohemiancoding.com/sketch -->
    <title>icon/company</title>
    <desc>Created with Sketch.</desc>
    <defs></defs>
    <g id="icon/company" stroke="none" stroke-width="1" fill="none" fill-rule="evenodd">
        <path d="M2.12847194,2.58663957 L2.14328541,2.58197644 C2.14075918,2.58272513 2.13823338,2.58347527 2.13570803,2.58422688 L2.12847194,2.58663957 Z M2.17381345,2.75927709 C1.36021051,2.96899012 0.719104541,3.70979184 0.719104541,4.43795442 L0.719104541,19.213739 L0,19.213739 L0,20 L19.9997383,20 L20,19.2137388 L19.2806337,19.2149754 L19.2806337,5.45022669 C19.2806337,4.72725926 18.6498416,3.97521553 17.8513134,3.74578284 L12.221907,2.13245842 L12.221907,0.392910408 C12.221907,0.268739203 12.1532929,0.151631744 12.0372785,0.0778201698 C11.9214686,0.00413881386 11.7721371,-0.0188103898 11.6346277,0.0157970622 L2.17381345,2.75927709 Z M11.3072073,0.916320314 L11.3072073,19.2147502 L1.63380435,19.2147502 L1.63380435,4.43896568 C1.63380435,4.05734124 2.00789589,3.6250681 2.432973,3.51471198 L11.3072073,0.916320314 Z M17.5623273,4.49201562 C17.9898455,4.61451148 18.3659339,5.06298956 18.3659339,5.45022669 L18.3659339,19.2147502 L12.221907,19.2147502 L12.221907,2.96218463 L17.5623273,4.49201562 Z M15.8657958,5.26103008 L15.8657958,6.81331017 L14.0599447,6.81331017 L14.0599447,5.26103008 L15.8657958,5.26103008 Z M15.8657958,8.00404592 L15.8657958,9.556326 L14.0599447,9.556326 L14.0599447,8.00404592 L15.8657958,8.00404592 Z M15.8657958,10.7470618 L15.8657958,12.2993419 L14.0599447,12.2993419 L14.0599447,10.7470618 L15.8657958,10.7470618 Z M15.8657958,16.2330934 L15.8657958,17.7853734 L14.0599447,17.7853734 L14.0599447,16.2330934 L15.8657958,16.2330934 Z M15.8657958,13.4900776 L15.8657958,15.0423577 L14.0599447,15.0423577 L14.0599447,13.4900776 L15.8657958,13.4900776 Z M9.06449206,5.26103008 L9.06449206,6.81331017 L7.25864095,6.81331017 L7.25864095,5.26103008 L9.06449206,5.26103008 Z M9.06449206,8.00404592 L9.06449206,9.556326 L7.25864095,9.556326 L7.25864095,8.00404592 L9.06449206,8.00404592 Z M9.06449206,10.7470618 L9.06449206,12.2993419 L7.25864095,12.2993419 L7.25864095,10.7470618 L9.06449206,10.7470618 Z M9.06449206,16.2330934 L9.06449206,17.7853734 L7.25864095,17.7853734 L7.25864095,16.2330934 L9.06449206,16.2330934 Z M9.06449206,13.4900776 L9.06449206,15.0423577 L7.25864095,15.0423577 L7.25864095,13.4900776 L9.06449206,13.4900776 Z M5.87339386,5.26103008 L5.87339386,6.81331017 L4.06754275,6.81331017 L4.06754275,5.26103008 L5.87339386,5.26103008 Z M5.87339386,8.00404592 L5.87339386,9.556326 L4.06754275,9.556326 L4.06754275,8.00404592 L5.87339386,8.00404592 Z M5.87339386,10.7470618 L5.87339386,12.2993419 L4.06754275,12.2993419 L4.06754275,10.7470618 L5.87339386,10.7470618 Z M5.87339386,16.2330934 L5.87339386,17.7853734 L4.06754275,17.7853734 L4.06754275,16.2330934 L5.87339386,16.2330934 Z M5.87339386,13.4900776 L5.87339386,15.0423577 L4.06754275,15.0423577 L4.06754275,13.4900776 L5.87339386,13.4900776 Z" id="company" fill="#333333" fill-rule="nonzero"></path>
    </g>
</svg>