<?xml version="1.0" encoding="UTF-8"?>
<svg width="20px" height="20px" viewBox="0 0 20 20" version="1.1" xmlns="http://www.w3.org/2000/svg" xmlns:xlink="http://www.w3.org/1999/xlink">
    <!-- Generator: Sketch 49.3 (51167) - http://www.bohemiancoding.com/sketch -->
    <title>icon/credit_card</title>
    <desc>Created with Sketch.</desc>
    <defs></defs>
    <g id="icon/credit_card" stroke="none" stroke-width="1" fill="none" fill-rule="evenodd">
        <path d="M18.6008745,3 L1.39912555,3 C0.627853905,3 0,3.6592466 0,4.46908182 L0,16.1561524 C0,16.9659876 0.627853905,17.6252342 1.39912555,17.6252342 L18.6008745,17.6252342 C19.3721461,17.6252342 20,16.9659876 20,16.1561524 L20,4.46908182 C20,3.6592466 19.3721461,3 18.6008745,3 Z M1.39912555,3.81324172 L18.6008745,3.81324172 C18.9456928,3.81324172 19.2254841,4.10702261 19.2254841,4.46908182 L19.2254841,5.12492192 L0.774515928,5.12492192 L0.774515928,4.46908182 C0.774515928,4.10702261 1.05430724,3.81324172 1.39912555,3.81324172 Z M19.2254841,9.37476577 L0.774515928,9.37476577 L0.774515928,5.93816365 L19.2254841,5.93816365 L19.2254841,9.37476577 Z M18.6008745,16.8119925 L1.39912555,16.8119925 C1.05430724,16.8119925 0.774515928,16.5182116 0.774515928,16.1561524 L0.774515928,10.1880075 L19.2254841,10.1880075 L19.2254841,16.1561524 C19.2254841,16.5182116 18.9456928,16.8119925 18.6008745,16.8119925 Z M17.2017489,14.6870706 L17.2017489,15.5003123 L17.9762648,15.5003123 L17.9762648,14.6870706 L17.2017489,14.6870706 Z M13.1542786,15.5003123 L15.9525297,15.5003123 L15.9525297,14.6870706 L13.1542786,14.6870706 L13.1542786,15.5003123 Z M10.1186758,14.6870706 L10.1186758,15.5003123 L11.9050593,15.5003123 L11.9050593,14.6870706 L10.1186758,14.6870706 Z" id="credit_card" fill="#333333" fill-rule="nonzero"></path>
    </g>
</svg>