<?xml version="1.0" encoding="UTF-8"?>
<svg width="20px" height="20px" viewBox="0 0 20 20" version="1.1" xmlns="http://www.w3.org/2000/svg" xmlns:xlink="http://www.w3.org/1999/xlink">
    <!-- Generator: Sketch 49.3 (51167) - http://www.bohemiancoding.com/sketch -->
    <title>nav/dashboard</title>
    <desc>Created with Sketch.</desc>
    <defs></defs>
    <g id="nav/dashboard" stroke="none" stroke-width="1" fill="none" fill-rule="evenodd">
        <path d="M10.1802029,10.2717894 L13.7793863,6.67260598 L14.3033901,6.69660986 L14.327394,7.22061374 L10.7282106,10.8197971 C10.7424475,10.877522 10.75,10.937879 10.75,11 C10.75,11.4142136 10.4142136,11.75 10,11.75 C9.58578644,11.75 9.25,11.4142136 9.25,11 C9.25,10.5857864 9.58578644,10.25 10,10.25 C10.062121,10.25 10.122478,10.2575525 10.1802029,10.2717894 Z M3.75905618,17.7935405 C3.75825914,17.7928079 3.75746222,17.7920752 3.75666543,17.7913423 L4.93348987,16.6145179 C4.74164128,16.4412854 4.55871463,16.2583587 4.38548212,16.0665101 L3.20865767,17.2433346 C1.77908182,15.6890864 0.876183283,13.6427984 0.78299122,11.3875 L2.44725605,11.3875 C2.44077807,11.2591511 2.4375,11.1299584 2.4375,11 C2.4375,10.8700416 2.44077807,10.7408489 2.44725605,10.6125 L0.78299122,10.6125 C0.876183283,8.35720155 1.77908182,6.31091364 3.20865767,4.75666543 L4.38548212,5.93348987 C4.55871463,5.74164128 4.74164128,5.55871463 4.93348987,5.38548212 L3.75666543,4.20865767 C5.31091364,2.77908182 7.35720155,1.87618328 9.6125,1.78299122 L9.6125,3.44725605 C9.74084891,3.44077807 9.87004164,3.4375 10,3.4375 C10.1299584,3.4375 10.2591511,3.44077807 10.3875,3.44725605 L10.3875,1.78299122 C12.6427984,1.87618328 14.6890864,2.77908182 16.2433346,4.20865767 L15.0665101,5.38548212 C15.2583587,5.55871463 15.4412854,5.74164128 15.6145179,5.93348987 L16.7913423,4.75666543 C18.2209182,6.31091364 19.1238167,8.35720155 19.2170088,10.6125 L17.552744,10.6125 C17.5592219,10.7408489 17.5625,10.8700416 17.5625,11 C17.5625,11.1299584 17.5592219,11.2591511 17.552744,11.3875 L19.2170088,11.3875 C19.1238167,13.6427984 18.2209182,15.6890864 16.7913423,17.2433346 L15.6145179,16.0665101 C15.4412854,16.2583587 15.2583587,16.4412854 15.0665101,16.6145179 L16.2433346,17.7913423 L16.7917787,18.3398007 C18.7648504,16.5131701 20,13.9008274 20,11 C20,5.4771525 15.5228475,1 10,1 C4.4771525,1 0,5.4771525 0,11 C0,13.90085 1.23516883,16.5132108 3.20826739,18.3398434 L3.75905618,17.7935405 Z" id="Combined-Shape" fill="#FFFFFF"></path>
    </g>
</svg>