<?xml version="1.0" encoding="UTF-8"?>
<svg width="19px" height="16px" viewBox="0 0 19 16" version="1.1" xmlns="http://www.w3.org/2000/svg" xmlns:xlink="http://www.w3.org/1999/xlink">
    <!-- Generator: Sketch 49.3 (51167) - http://www.bohemiancoding.com/sketch -->
    <title>icon/download</title>
    <desc>Created with Sketch.</desc>
    <defs></defs>
    <g id="icon/download" stroke="none" stroke-width="1" fill="none" fill-rule="evenodd">
        <g id="0758-download2" fill="#000000" fill-rule="nonzero">
            <path d="M14.2557269,7.12520477 C14.0685683,6.94351066 13.7643156,6.94351066 13.577157,7.12520477 L9.59787714,10.9883013 L9.59787714,0.465882357 C9.59787714,0.208715296 9.38288469,0 9.11798328,0 C8.85308187,0 8.63808942,0.208715296 8.63808942,0.465882357 L8.63808942,10.9883013 L4.65880956,7.12520477 C4.47165096,6.94351066 4.16739825,6.94351066 3.98023965,7.12520477 C3.79308104,7.30689889 3.79308104,7.60226831 3.98023965,7.78396243 L8.77917822,12.442786 C8.87323741,12.5340989 8.99609024,12.5788237 9.11894307,12.5788237 C9.2417959,12.5788237 9.36464872,12.5331672 9.45870792,12.4418542 L14.2576465,7.78303066 C14.4448051,7.60133654 14.4448051,7.30596713 14.2576465,7.12427301 L14.2557269,7.12520477 Z" id="Shape"></path>
            <path d="M16.796285,15.8400002 L1.43968157,15.8400002 C0.645937131,15.8400002 0,15.2129225 0,14.4423531 L0,12.5788237 C0,12.3216566 0.214992448,12.1129413 0.479893857,12.1129413 C0.744795266,12.1129413 0.959787714,12.3216566 0.959787714,12.5788237 L0.959787714,14.4423531 C0.959787714,14.6995201 1.17478016,14.9082354 1.43968157,14.9082354 L16.796285,14.9082354 C17.0611864,14.9082354 17.2761788,14.6995201 17.2761788,14.4423531 L17.2761788,12.5788237 C17.2761788,12.3216566 17.4911713,12.1129413 17.7560727,12.1129413 C18.0209741,12.1129413 18.2359666,12.3216566 18.2359666,12.5788237 L18.2359666,14.4423531 C18.2359666,15.2129225 17.5900294,15.8400002 16.796285,15.8400002 Z" id="Shape"></path>
        </g>
    </g>
</svg>