<?xml version="1.0" encoding="UTF-8"?>
<svg width="20px" height="20px" viewBox="0 0 20 20" version="1.1" xmlns="http://www.w3.org/2000/svg" xmlns:xlink="http://www.w3.org/1999/xlink">
    <!-- Generator: Sketch 49.3 (51167) - http://www.bohemiancoding.com/sketch -->
    <title>icon/email</title>
    <desc>Created with Sketch.</desc>
    <defs></defs>
    <g id="icon/email" stroke="none" stroke-width="1" fill="none" fill-rule="evenodd">
        <path d="M1.32934114,3.81224767 L18.6708865,3.81224767 L9.95831814,11.1712557 L1.32934114,3.81224767 Z M19.2221528,4.39125583 L19.2221528,15.5008139 C19.2221528,15.683912 19.076496,15.8368206 18.8921185,15.8368206 L1.10788146,15.8368206 C0.923563695,15.8368206 0.777847213,15.6838426 0.777847213,15.5008139 L0.777847213,4.39125583 L9.75544166,11.9741169 C9.89810168,12.0946137 10.1018983,12.0946137 10.2445583,11.9741168 L19.2221528,4.39125583 Z M0,4.14825434 L0,15.5008139 C0,16.1360246 0.497684951,16.6490683 1.10788146,16.6490683 L18.8921185,16.6490683 C19.5023347,16.6490683 20,16.1361352 20,15.5008139 L20,4.14825434 C20,3.51304369 19.502315,3 18.8921185,3 L1.10788146,3 C0.497665244,3 0,3.51293308 0,4.14825434 Z" id="email" fill="#333333" fill-rule="nonzero"></path>
    </g>
</svg>