<?xml version="1.0" encoding="UTF-8"?>
<svg width="21px" height="20px" viewBox="0 0 21 20" version="1.1" xmlns="http://www.w3.org/2000/svg" xmlns:xlink="http://www.w3.org/1999/xlink">
    <!-- Generator: Sketch 49.3 (51167) - http://www.bohemiancoding.com/sketch -->
    <title>icon/gear</title>
    <desc>Created with Sketch.</desc>
    <defs></defs>
    <g id="icon/gear" stroke="none" stroke-width="1" fill="none" fill-rule="evenodd">
        <path d="M3.21193708,12.4424105 L3.48113679,13.0915664 C3.54189901,13.2161674 3.53036188,13.463062 3.45806253,13.5815098 L2.38357113,15.3382302 C2.15359766,15.7151098 2.20128447,16.2488944 2.51047956,16.5950083 L3.42037457,17.5041341 C3.73726109,17.7856401 4.29642734,17.8364035 4.66100065,17.6156597 L6.41772103,16.5411683 C6.52770834,16.4734838 6.76383494,16.4496404 6.92920048,16.5273238 L7.5775872,16.7949852 C7.70834135,16.8403646 7.87524516,17.0234204 7.90754913,17.1587894 L8.38980118,19.1616352 C8.49209707,19.5862016 8.89743491,19.9353921 9.3327693,19.9753875 C9.3327693,19.9753875 9.59966158,20 9.99961543,20 C10.3995693,20 10.6664616,19.9753875 10.6672307,19.9753875 C11.1017959,19.9361612 11.5071338,19.5862016 11.6094297,19.1616352 L12.0924509,17.1587894 C12.1247548,17.0241895 12.2908895,16.8403646 12.4431796,16.7872938 L13.0923355,16.5180941 C13.2069377,16.4619467 13.4722917,16.4734838 13.582279,16.5411683 L15.3389993,17.6156597 C15.4935969,17.7102642 15.678191,17.7602584 15.8743222,17.7602584 C16.1396762,17.7602584 16.3965696,17.6671922 16.5957774,17.4895204 L17.5049033,16.5796254 C17.7987155,16.2496635 17.8464023,15.7158789 17.6164289,15.3389993 L16.5419375,13.582279 C16.4696381,13.4638311 16.458101,13.2169365 16.5280929,13.0707995 L16.7957543,12.4224128 C16.8411337,12.2916587 17.0241895,12.1247548 17.1595585,12.0924509 L19.1624043,11.6101988 C19.5869707,11.5079029 19.9361612,11.1025651 19.9761566,10.6672307 C19.9761566,10.6672307 20.0007691,10.4003384 20.0007691,10.0003846 C20.0007691,9.60043072 19.9761566,9.33353844 19.9761566,9.3327693 C19.9369304,8.89820405 19.5869707,8.49286621 19.1624043,8.38980118 L17.1603277,7.90831827 C17.0249587,7.87601431 16.8411337,7.70911049 16.7880629,7.55682037 L16.5188632,6.9076645 C16.458101,6.78306349 16.4696381,6.5361689 16.5419375,6.41772103 L17.6164289,4.66100065 C17.8464023,4.28412106 17.7987155,3.7503365 17.4895204,3.40422259 L16.5796254,2.49509672 C16.2619698,2.2128216 15.7020344,2.16205822 15.3389993,2.38357113 L13.582279,3.45806253 C13.4722917,3.52497789 13.2353959,3.55035957 13.0707995,3.47190709 L12.4224128,3.20424566 C12.2916587,3.15886628 12.125524,2.97581048 12.09322,2.84044149 L11.6101988,0.837595662 C11.5079029,0.413029266 11.1025651,0.0638387878 10.6672307,0.0238434027 C10.6656924,0.0246125447 10.3988001,0 9.99884629,0 C9.59889244,0 9.33200015,0.0246125447 9.33123101,0.0246125447 C8.89666577,0.0638387878 8.49132792,0.413798408 8.38826289,0.838364804 L7.90677999,2.83967235 C7.87447602,2.97504134 7.7075722,3.15886628 7.55528208,3.21193708 L6.90612622,3.48113679 C6.79075491,3.53728416 6.52617006,3.52497789 6.41618275,3.45806253 L4.66023151,2.38357113 C4.29642734,2.16205822 3.74879822,2.20051533 3.40345345,2.50971042 L2.49432758,3.41960543 C2.20051533,3.74956736 2.15282852,4.28335192 2.38280198,4.66023151 L3.45729339,6.41695189 C3.52959274,6.53539976 3.54112987,6.78229435 3.47113795,6.92843133 L3.20347652,7.57681806 C3.15809714,7.7075722 2.97504134,7.87447602 2.83967235,7.90677999 L0.83682652,8.38903203 C0.412260124,8.49132792 0.0630696458,8.89666577 0.0230742607,9.33200015 C0.0246125447,9.33200015 0,9.59889244 0,9.99884629 C0,10.3988001 0.0246125447,10.6656924 0.0246125447,10.6664616 C0.0638387878,11.1010268 0.413798408,11.5063647 0.838364804,11.6094297 L2.83967235,12.0909126 C2.97504134,12.1232166 3.15886628,12.2901204 3.21193708,12.4424105 Z M0.769142022,9.99884629 C0.769142022,9.64657924 0.789908857,9.40891436 0.790677999,9.40122294 C0.799907703,9.29738876 0.917586432,9.16125062 1.01834404,9.13663808 L3.02118986,8.65438603 C3.40960658,8.56055071 3.80109987,8.20520709 3.92262431,7.84909434 L4.17182633,7.24377956 C4.34719071,6.88459024 4.32257816,6.35695881 4.11414068,6.01545975 L3.03964927,4.25950852 C2.98811676,4.17413375 3.00273045,4.00492251 3.05349383,3.94723686 L3.93108487,3.06887667 C4.0010768,3.00657616 4.17951775,2.99119332 4.25950852,3.03964927 L6.0162289,4.11414068 C6.34926739,4.31796331 6.91997077,4.33180787 7.22224359,4.18182517 L7.8283275,3.93108487 C8.20597623,3.80109987 8.56131985,3.40960658 8.65515517,3.02042072 L9.13663808,1.01834404 C9.16125062,0.91681729 9.29738876,0.799138561 9.40122294,0.789908857 C9.40891436,0.789908857 9.64657924,0.769142022 9.99884629,0.769142022 C10.3511133,0.769142022 10.5887782,0.789908857 10.5964696,0.790677999 C10.7003038,0.799907703 10.8364419,0.917586432 10.8610545,1.01834404 L11.3433065,3.02042072 C11.4371419,3.40883744 11.7917163,3.80109987 12.1485982,3.92262431 L12.753913,4.17182633 C13.1054109,4.34411414 13.6499635,4.31719417 13.9822328,4.11414068 L15.7381841,3.03964927 C15.8181748,2.99119332 16.0073838,3.01657501 16.0504557,3.05349383 L16.9288159,3.93108487 C16.9949621,4.00569165 17.0095758,4.17413375 16.9580433,4.25950852 L15.8835519,6.0162289 C15.6751144,6.35695881 15.6505019,6.88535938 15.8158674,7.22224359 L16.0666077,7.8283275 C16.1965927,8.20597623 16.588086,8.56131985 16.9772719,8.65515517 L18.9793485,9.13663808 C19.0808753,9.16125062 19.198554,9.29738876 19.2077837,9.40122294 C19.2077837,9.40891436 19.2285506,9.64657924 19.2285506,9.99884629 C19.2285506,10.3511133 19.2077837,10.5887782 19.2070146,10.5964696 C19.1977849,10.7003038 19.0801061,10.8364419 18.9793485,10.8610545 L16.9765027,11.3433065 C16.588086,11.4371419 16.1965927,11.7924855 16.0750683,12.1485982 L15.8258662,12.753913 C15.6505019,13.1131023 15.6751144,13.6407338 15.8835519,13.9822328 L16.9580433,15.7381841 C17.0095758,15.8235588 16.9949621,15.9927701 16.9441987,16.0504557 L16.0666077,16.9288159 C16.025074,16.9657347 15.9496981,16.9895781 15.8735531,16.9895781 C15.8204823,16.9895781 15.7712572,16.978041 15.7389532,16.9580433 L13.9822328,15.8835519 C13.6499635,15.6804984 13.0792601,15.6658847 12.7762181,15.8158674 L12.1701342,16.0666077 C11.7924855,16.1965927 11.4371419,16.5888551 11.3440757,16.9772719 L10.8618236,18.9793485 C10.8372111,19.0808753 10.701073,19.198554 10.5972388,19.2077837 C10.5887782,19.2077837 10.3511133,19.2285506 9.99884629,19.2285506 C9.64657924,19.2285506 9.40891436,19.2077837 9.40122294,19.2070146 C9.29738876,19.1977849 9.16125062,19.0801061 9.13663808,18.9793485 L8.65438603,16.9765027 C8.56055071,16.588086 8.20520709,16.1965927 7.84909434,16.0750683 L7.24377956,15.8258662 C7.08687459,15.748952 6.89689651,15.7089567 6.69384302,15.7089567 C6.44079529,15.7089567 6.20005384,15.7712572 6.01545975,15.884321 L4.25950852,16.9588124 C4.17951775,17.0072684 3.98953967,16.9811176 3.94723686,16.9449679 L3.06887667,16.0666077 C3.00273045,15.9920009 2.98811676,15.8235588 3.03964927,15.7381841 L4.11414068,13.9814637 C4.32257816,13.6407338 4.34719071,13.1123332 4.18182517,12.775449 L3.93108487,12.1693651 C3.80109987,11.7917163 3.40960658,11.4363727 3.02042072,11.3425374 L1.01834404,10.8610545 C0.91681729,10.8364419 0.799138561,10.7003038 0.789908857,10.5964696 C0.789908857,10.5887782 0.769142022,10.3511133 0.769142022,9.99884629 Z M9.99884629,14.2291274 C12.331654,14.2291274 14.2291274,12.331654 14.2291274,9.99884629 C14.2291274,7.66603853 12.331654,5.76856517 9.99884629,5.76856517 C7.66603853,5.76856517 5.76856517,7.66603853 5.76856517,9.99884629 C5.76856517,12.331654 7.66603853,14.2291274 9.99884629,14.2291274 Z M9.99884629,6.53770719 C11.9070876,6.53770719 13.4599854,8.09060493 13.4599854,9.99884629 C13.4599854,11.9070876 11.9070876,13.4599854 9.99884629,13.4599854 C8.09060493,13.4599854 6.53770719,11.9070876 6.53770719,9.99884629 C6.53770719,8.09060493 8.09060493,6.53770719 9.99884629,6.53770719 Z" id="Shape" fill="#000000" fill-rule="nonzero"></path>
    </g>
</svg>