<?xml version="1.0" encoding="UTF-8"?>
<svg width="20px" height="20px" viewBox="0 0 20 20" version="1.1" xmlns="http://www.w3.org/2000/svg" xmlns:xlink="http://www.w3.org/1999/xlink">
    <!-- Generator: Sketch 49.3 (51167) - http://www.bohemiancoding.com/sketch -->
    <title>icon/globe</title>
    <desc>Created with Sketch.</desc>
    <defs></defs>
    <g id="icon/globe" stroke="none" stroke-width="1" fill="none" fill-rule="evenodd">
        <path d="M0.021328173,10.4216159 C0.0090425247,10.3491915 0,10.1249732 0,10 C0,4.48618185 4.48618185,0 10,0 C15.5138181,0 20,4.48618185 20,10 C20,10.040602 19.9983491,10.0720838 19.9934733,10.141497 C19.9900444,10.1903893 19.9885646,10.2152473 19.9878232,10.2402402 C19.9971458,10.274326 20,10.2886153 20,10.3101592 C20,10.3497911 19.9926288,10.3864997 19.978377,10.428579 C19.7506963,15.7619194 15.3505048,20 10,20 C4.64716687,20 0.245474327,15.7582302 0.021328173,10.4216159 Z M16.1035752,10.695845 L13.1663056,10.695845 C13.1470684,11.5927946 13.0915767,12.4816671 13.0010123,13.3337126 C13.8718211,13.509756 14.7066842,13.7609779 15.4882236,14.0821674 C15.8346057,13.030123 16.0441748,11.8860709 16.1035752,10.695845 Z M16.189482,14.3898432 C16.6809041,14.6288056 17.1518644,14.9054168 17.6025253,15.217355 C18.5186272,13.887289 19.0699203,12.335696 19.19276,10.6952247 L16.8733835,10.6952247 C16.8114263,11.9937236 16.5784301,13.2424931 16.189482,14.3898432 Z M8.78498288,17.8138342 C9.17453625,18.7326696 9.60925805,19.2298689 10,19.2298689 C10.3907508,19.2298689 10.8254707,18.7326495 11.2149375,17.813839 C11.6168325,16.8657087 11.9469404,15.5297086 12.1555229,13.9622098 C11.4342334,13.8529853 10.7135535,13.7968165 10,13.7968165 C9.28650872,13.7968165 8.5658415,13.852974 7.84387124,13.9622166 C8.05275515,15.529783 8.38303302,16.8657594 8.78498288,17.8138342 Z M7.09277449,14.0985496 C6.28319631,14.2660774 5.50641184,14.5032567 4.7785473,14.8046406 C5.61952495,16.8687036 6.96184733,18.3650522 8.51399917,18.9513128 C7.86891184,17.9356891 7.37803757,16.2219487 7.09277449,14.0985496 Z M7.59371803,9.92509363 L12.406282,9.92509363 C12.4038333,8.84749383 12.3485578,7.8049846 12.2449866,6.80373945 C11.4950943,6.91580157 10.7441663,6.97331461 10,6.97331461 C9.25583371,6.97331461 8.50490566,6.91580157 7.75501339,6.80373945 C7.65144219,7.8049846 7.59616669,8.84749383 7.59371803,9.92509363 Z M7.6038043,10.6952247 C7.62135042,11.5435501 7.66726511,12.3500037 7.75499592,13.1962629 C8.50508566,13.0841647 9.25544209,13.0266854 10,13.0266854 C10.7446182,13.0266854 11.4949846,13.0841753 12.2444028,13.1962565 C12.3266072,12.4041542 12.3776236,11.5666805 12.3955884,10.6952247 L7.6038043,10.6952247 Z M11.4864891,18.9513627 C13.0386923,18.3651388 14.3810636,16.868771 15.2220656,14.8046589 C14.4931109,14.5030347 13.7167908,14.2659524 12.9078239,14.0985454 C12.6219379,16.2221704 12.1310579,17.935821 11.4864891,18.9513627 Z M16.1280735,9.92509363 C16.1204551,8.5245624 15.8992739,7.1652375 15.4882276,5.91839857 C14.7048958,6.2398068 13.8698332,6.4912393 13.0009833,6.6669125 C13.1139432,7.73323945 13.1737733,8.83929931 13.1764072,9.92509363 L16.1280735,9.92509363 Z M15.2214535,5.19536136 C14.3805129,3.13138805 13.0382712,1.63507954 11.4862055,1.04876454 C12.1311919,2.06322172 12.6217153,3.77601499 12.9078311,5.90150534 C13.7150557,5.73497009 14.4914638,5.49767252 15.2214535,5.19536136 Z M11.2150171,2.18616579 C10.8254638,1.26733044 10.3907419,0.770131086 10,0.770131086 C9.60925805,0.770131086 9.17453625,1.26733044 8.78498288,2.18616579 C8.38303302,3.13424063 8.05275515,4.47021696 7.84387124,6.03778339 C8.5658415,6.14702601 9.28650872,6.20318352 10,6.20318352 C10.7134913,6.20318352 11.4341585,6.14702601 12.1561288,6.03778339 C11.9472448,4.47021696 11.616967,3.13424063 11.2150171,2.18616579 Z M8.51351088,1.04863735 C6.96130772,1.6348612 5.61893641,3.13122901 4.77793443,5.19534114 C5.5068891,5.49696529 6.28320922,5.7340476 7.09217609,5.90145455 C7.37806208,3.77782963 7.86894214,2.06417897 8.51351088,1.04863735 Z M4.51176776,5.91782908 C4.10069703,7.1653382 3.87954438,8.52464666 3.87192654,9.92509363 L6.82359279,9.92509363 C6.82622669,8.839285 6.88605841,7.73321029 6.99902115,6.66687033 C6.12752994,6.49013226 5.29272344,6.23877985 4.51176776,5.91782908 Z M3.89642282,10.6952247 C3.95581733,11.8859562 4.16536952,13.0300622 4.51179172,14.0822138 C5.29511069,13.7608124 6.13015849,13.5093842 6.99899257,13.3337127 C6.90841573,12.4810091 6.8529298,11.5920918 6.8336944,10.6952247 L3.89642282,10.6952247 Z M3.12661661,10.6952247 L0.807237447,10.6952247 C0.93005449,12.3360096 1.48121092,13.8870728 2.39747473,15.2173555 C2.84706832,14.9061713 3.31757094,14.6298055 3.80994451,14.3898846 C3.42140323,13.2420189 3.18854955,11.9932197 3.12661661,10.6952247 Z M6.31941548,18.4530761 C5.40689059,17.6135666 4.63881431,16.4673199 4.08032928,15.1116423 C3.66389371,15.318105 3.25935935,15.5585918 2.85936682,15.8340968 C3.78626566,16.9667313 4.97279896,17.8651208 6.31941548,18.4530761 Z M17.1406464,15.8334904 C16.7424897,15.5593054 16.337608,15.3187482 15.9196428,15.1110914 C15.3608012,16.4676712 14.5930293,17.6138956 13.6809012,18.4524728 C15.0273993,17.8649591 16.2138225,16.9665759 17.1406464,15.8334904 Z M19.2295671,9.92509363 C19.2145753,8.06754199 18.6422198,6.29227145 17.6031197,4.78266023 C17.1541931,5.09334739 16.6831479,5.36986312 16.1900739,5.61010762 C16.6457026,6.95441793 16.8903635,8.41792707 16.8982132,9.92509363 L19.2295671,9.92509363 Z M13.6816778,1.54719834 C14.5937179,2.38609219 15.3617088,3.53244971 15.9202627,4.88828846 C16.3382158,4.68063768 16.7430862,4.44008848 17.1412318,4.16591334 C16.2139339,3.0334446 15.0275833,2.13515768 13.6816778,1.54719834 Z M6.31909957,1.5475265 C4.97278462,2.13495618 3.78631494,3.03320758 2.85936507,4.16590532 C3.25990806,4.44182894 3.66390437,4.68221354 4.08034447,4.88893945 C4.6391873,3.53234583 5.40696422,2.38611015 6.31909957,1.5475265 Z M0.770433285,9.92509363 L3.10178672,9.92509363 C3.10963652,8.41792697 3.35429741,6.95441773 3.80992624,5.61010734 C3.31649578,5.36968887 2.84545888,5.09309728 2.39745908,4.78268419 C1.35792842,6.29205315 0.785426644,8.06730399 0.770433285,9.92509363 Z" id="globe" fill="#333333" fill-rule="nonzero"></path>
    </g>
</svg>