<?xml version="1.0" encoding="UTF-8"?>
<svg width="20px" height="20px" viewBox="0 0 20 20" version="1.1" xmlns="http://www.w3.org/2000/svg" xmlns:xlink="http://www.w3.org/1999/xlink">
    <!-- Generator: Sketch 49.3 (51167) - http://www.bohemiancoding.com/sketch -->
    <title>nav/incomingrequests</title>
    <desc>Created with Sketch.</desc>
    <defs></defs>
    <g id="nav/incomingrequests" stroke="none" stroke-width="1" fill="none" fill-rule="evenodd">
        <path d="M12.9448622,7.14281192 L10.3884712,9.74556186 L10.3884712,1 L9.61152882,1 L9.61152882,9.74556186 L7.05513784,7.14281192 L6.49122807,7.7067217 L10,11.2154936 L13.5087719,7.7067217 L12.9448622,7.14281192 Z M8.76681208,5.83765177 L8.76681208,5.11027569 L3.9984716,5.11027569 L0,11.3824073 L0,18.4238543 L20,18.4238543 L20,11.3824484 L16.0015283,5.11027569 L11.2331879,5.11027569 L11.2331879,5.83765177 L15.5525581,5.83765177 L19.1209428,11.4033975 L13.6402577,11.4033975 L13.6402577,12.9470459 C13.6402577,13.8288921 12.904641,14.5499584 12.0058845,14.5499584 L7.99407359,14.5499584 C7.095294,14.5499584 6.35970038,13.8289106 6.35970038,12.9470459 L6.35970038,11.4033975 L0.879014887,11.4033975 L4.44744205,5.83765177 L8.76681208,5.83765177 Z M19.2272615,17.6713324 L0.772738491,17.6713324 L0.772738491,12.164892 L5.58696189,12.164892 L5.58696189,13.3448729 C5.58696189,14.4461692 6.46959049,15.3114529 7.59286733,15.3114529 L12.4070907,15.3114529 C13.5304095,15.3114529 14.4129962,14.4461692 14.4129962,13.3448729 L14.4129962,12.164892 L19.2272615,12.164892 L19.2272615,17.6713324 Z" id="icon:-incoming-requests" fill="#FFFFFF" fill-rule="nonzero"></path>
    </g>
</svg>