<?xml version="1.0" encoding="UTF-8"?>
<svg width="20px" height="20px" viewBox="0 0 20 20" version="1.1" xmlns="http://www.w3.org/2000/svg" xmlns:xlink="http://www.w3.org/1999/xlink">
    <!-- Generator: Sketch 49.3 (51167) - http://www.bohemiancoding.com/sketch -->
    <title>icon/link</title>
    <desc>Created with Sketch.</desc>
    <defs></defs>
    <g id="icon/link" stroke="none" stroke-width="1" fill="none" fill-rule="evenodd">
        <g id="link" fill="#000000" fill-rule="nonzero">
            <path d="M11.2787015,13 C10.1545072,13 9.03031281,12.5756115 8.17435146,11.7268346 C7.94188285,11.4963172 7.94188285,11.1215786 8.17435146,10.8910612 C8.40682007,10.6605438 8.78473058,10.6605438 9.0171992,10.8910612 C10.2641847,12.1275802 12.2920263,12.1275802 13.5390117,10.8910612 L17.8736573,6.59279804 C19.1206427,5.35627899 19.1206427,3.34545785 17.8736573,2.1089388 C16.6266718,0.872419751 14.5988302,0.872419751 13.3518447,2.1089388 L9.69433854,5.73574611 C9.46186993,5.96626353 9.08395941,5.96626353 8.8514908,5.73574611 C8.61902219,5.5052287 8.61902219,5.13049013 8.8514908,4.89997272 L12.508997,1.27316541 C14.2209197,-0.42438847 17.0057744,-0.42438847 18.716505,1.27316541 C20.4272355,2.97071929 20.4284277,5.73219969 18.716505,7.42857143 L14.3818595,11.7268346 C13.5258981,12.5756115 12.4017038,13 11.2775094,13 L11.2787015,13 Z" id="Shape"></path>
            <path d="M4.38812865,20 C3.26397616,20 2.13982367,19.5756115 1.2838942,18.7268346 C-0.427964734,17.0292807 -0.427964734,14.2678003 1.2838942,12.5714286 L5.61837824,8.27316541 C7.33023718,6.57561153 10.1149882,6.57561153 11.825655,8.27316541 C12.058115,8.50368282 12.058115,8.87842139 11.825655,9.1089388 C11.5931951,9.33945622 11.2152986,9.33945622 10.9828387,9.1089388 C9.73589966,7.87241975 7.70813361,7.87241975 6.46119459,9.1089388 L2.12671054,13.407202 C0.879771514,14.643721 0.879771514,16.6545421 2.12671054,17.8910612 C3.37364957,19.1275802 5.40141562,19.1275802 6.64835465,17.8910612 L10.3057246,14.2642539 C10.5381845,14.0337365 10.916081,14.0337365 11.1485409,14.2642539 C11.3810009,14.4947713 11.3810009,14.8695099 11.1485409,15.1000273 L7.49117099,18.7268346 C6.63524152,19.5756115 5.51108904,20 4.38693655,20 L4.38812865,20 Z" id="Shape"></path>
        </g>
    </g>
</svg>