<?xml version="1.0" encoding="UTF-8"?>
<svg width="18px" height="23px" viewBox="0 0 18 23" version="1.1" xmlns="http://www.w3.org/2000/svg" xmlns:xlink="http://www.w3.org/1999/xlink">
    <!-- Generator: Sketch 49.3 (51167) - http://www.bohemiancoding.com/sketch -->
    <title>icon/lock</title>
    <desc>Created with Sketch.</desc>
    <defs></defs>
    <g id="icon/lock" stroke="none" stroke-width="1" fill="none" fill-rule="evenodd">
        <g id="lock" fill="#4A4A4A">
            <path d="M8.75,0 C5.30375,0 2.5,3.16243286 2.5,7.04956055 L2.5,9.16442871 L1.5625,9.16442871 C0.70125,9.16442871 0,9.9553894 0,10.9268188 L0,20.7962036 C0,21.7676331 0.70125,22.5585938 1.5625,22.5585938 L15.9375,22.5585938 C16.79875,22.5585938 17.5,21.7676331 17.5,20.7962036 L17.5,10.9268188 C17.5,9.9553894 16.79875,9.16442871 15.9375,9.16442871 L15,9.16442871 L15,7.04956055 C15,3.16243286 12.19625,0 8.75,0 Z M3.125,7.04956055 C3.125,3.5515686 5.64875,0.704956055 8.75,0.704956055 C11.85125,0.704956055 14.375,3.5515686 14.375,7.04956055 L14.375,9.16442871 L12.5,9.16442871 L12.5,7.04956055 C12.5,4.71686096 10.818125,2.81982422 8.75,2.81982422 C6.681875,2.81982422 5,4.71686096 5,7.04956055 L5,9.16442871 L3.125,9.16442871 L3.125,7.04956055 Z M11.875,9.16442871 L5.625,9.16442871 L5.625,7.04956055 C5.625,5.1059967 7.026875,3.52478027 8.75,3.52478027 C10.473125,3.52478027 11.875,5.1059967 11.875,7.04956055 L11.875,9.16442871 Z M7.683125,14.8040771 L4.558125,18.3288574 L1.691875,18.3288574 L4.816875,14.8040771 L7.683125,14.8040771 Z M11.433125,14.8040771 L8.308125,18.3288574 L5.441875,18.3288574 L8.566875,14.8040771 L11.433125,14.8040771 Z M15.183125,14.8040771 L12.058125,18.3288574 L9.191875,18.3288574 L12.316875,14.8040771 L15.183125,14.8040771 Z M16.875,14.8040771 L16.875,18.3288574 L12.941875,18.3288574 L16.066875,14.8040771 L16.875,14.8040771 Z M0.808125,18.3288574 L0.625,18.3288574 L0.625,14.8040771 L3.933125,14.8040771 L0.808125,18.3288574 L0.808125,18.3288574 Z M15.9375,21.8536377 L1.5625,21.8536377 C1.045625,21.8536377 0.625,21.3792023 0.625,20.7962036 L0.625,19.0338135 L16.875,19.0338135 L16.875,20.7962036 C16.875,21.3792023 16.454375,21.8536377 15.9375,21.8536377 Z M16.875,10.9268188 L16.875,14.0991211 L0.625,14.0991211 L0.625,10.9268188 C0.625,10.3438202 1.045625,9.86938477 1.5625,9.86938477 L15.9375,9.86938477 C16.454375,9.86938477 16.875,10.3438202 16.875,10.9268188 Z" id="Shape"></path>
        </g>
    </g>
</svg>