<?xml version="1.0" encoding="UTF-8"?>
<svg width="20px" height="20px" viewBox="0 0 20 20" version="1.1" xmlns="http://www.w3.org/2000/svg" xmlns:xlink="http://www.w3.org/1999/xlink">
    <!-- Generator: Sketch 49.3 (51167) - http://www.bohemiancoding.com/sketch -->
    <title>icon/lock_locked</title>
    <desc>Created with Sketch.</desc>
    <defs></defs>
    <g id="icon/lock_locked" stroke="none" stroke-width="1" fill="none" fill-rule="evenodd">
        <path d="M17.329388,8.06389905 C17.7880934,8.06389905 18.1828306,8.22369264 18.5093239,8.54145772 C18.8358173,8.85922281 19,9.24340739 19,9.68985004 L19,18.374049 C19,18.8204917 18.8358173,19.2046762 18.5093239,19.5224413 C18.1828306,19.8402064 17.7880934,20 17.329388,20 L2.67061198,20 C2.21190662,20 1.8171694,19.8402064 1.49067607,19.5224413 C1.16418273,19.2046762 1,18.8204917 1,18.374049 L1,9.68985004 C1,9.24340739 1.16418273,8.85922281 1.49067607,8.54145772 C1.8171694,8.22369264 2.21190662,8.06389905 2.67061198,8.06389905 L3.54935235,8.06389905 L3.54935235,6.27820044 C3.54935235,5.4152201 3.71739914,4.60071951 4.05348876,3.83529419 C4.38927789,3.07055324 4.84958417,2.40345722 5.43420549,1.83446476 C6.01882682,1.2654723 6.70424638,0.817471544 7.48999294,0.490659172 C8.27644267,0.163554334 9.11331564,0 10,0 C10.8866844,0 11.7235573,0.163554334 12.5100071,0.490659172 C13.2957536,0.817471544 13.9811732,1.2654723 14.5657945,1.83446476 C15.1504158,2.40345722 15.6107221,3.07055324 15.9465112,3.83529419 C16.2826009,4.60071951 16.4506476,5.4152201 16.4506476,6.27820044 L16.4506476,8.06389905 L17.329388,8.06389905 Z M4.2639572,6.27820044 L4.2639572,8.13910022 L6.17597147,8.13910022 L6.17597147,6.27820044 C6.17597147,5.25728504 6.55106774,4.38176629 7.30127153,3.65161793 C8.05147532,2.92146958 8.95104248,2.55640087 10,2.55640087 C11.0489575,2.55640087 11.9485247,2.92146958 12.6987285,3.65161793 C13.4489323,4.38176629 13.8240285,5.25728504 13.8240285,6.27820044 L13.8240285,8.13910022 L15.7360428,8.13910022 L15.7360428,6.27820044 C15.7360428,5.50282165 15.5866682,4.77914564 15.2879145,4.10715069 C14.9891607,3.43515574 14.5775507,2.84393829 14.0530719,2.33348059 C13.5285931,1.82302289 12.9211364,1.42241652 12.2306833,1.13164948 C11.5402303,0.840882433 10.7966766,0.695501092 10,0.695501092 C9.20332341,0.695501092 8.45976974,0.840882433 7.76931669,1.13164948 C7.07886364,1.42241652 6.47140685,1.82302289 5.94692809,2.33348059 C5.42244934,2.84393829 5.01083927,3.43515574 4.71208555,4.10715069 C4.41333182,4.77914564 4.2639572,5.50282165 4.2639572,6.27820044 Z M13.1866904,8.13910022 L13.1866904,6.27820044 C13.1866904,5.42528377 12.8746635,4.69514637 12.2506001,4.08776632 C11.6265368,3.48038627 10.8763443,3.1767008 10,3.1767008 C9.12365575,3.1767008 8.37346321,3.48038627 7.74939988,4.08776632 C7.12533654,4.69514637 6.81330956,5.42528377 6.81330956,6.27820044 L6.81330956,8.13910022 L13.1866904,8.13910022 Z M1.71460485,9.68985004 L1.71460485,18.374049 C1.71460485,18.6325086 1.80754906,18.852196 1.99344026,19.0331177 C2.17933147,19.2140394 2.40505312,19.3044989 2.67061198,19.3044989 L17.329388,19.3044989 C17.5949469,19.3044989 17.8206685,19.2140394 18.0065597,19.0331177 C18.1924509,18.852196 18.2853952,18.6325086 18.2853952,18.374049 L18.2853952,9.68985004 C18.2853952,9.43139044 18.1924509,9.21170308 18.0065597,9.03078136 C17.8206685,8.84985965 17.5949469,8.75940015 17.329388,8.75940015 L2.67061198,8.75940015 C2.40505312,8.75940015 2.17933147,8.84985965 1.99344026,9.03078136 C1.80754906,9.21170308 1.71460485,9.43139044 1.71460485,9.68985004 Z" id="lock_2" fill="#333333" fill-rule="nonzero"></path>
    </g>
</svg>