<?xml version="1.0" encoding="UTF-8"?>
<svg width="20px" height="20px" viewBox="0 0 20 20" version="1.1" xmlns="http://www.w3.org/2000/svg" xmlns:xlink="http://www.w3.org/1999/xlink">
    <!-- Generator: Sketch 49.3 (51167) - http://www.bohemiancoding.com/sketch -->
    <title>icon/notificationsdisabled</title>
    <desc>Created with Sketch.</desc>
    <defs></defs>
    <g id="icon/notificationsdisabled" stroke="none" stroke-width="1" fill="none" fill-rule="evenodd">
        <g id="icon/notification" fill="#000000" fill-rule="nonzero">
            <g id="icon_notifications">
                <g transform="translate(2.000000, 0.000000)">
                    <path d="M15.4182168,16.6219697 L0,16.6219697 L0.411932228,15.9844697 C2.04044966,13.4641414 2.06048373,7.19810606 2.06048373,7.13515152 C2.06048373,4.30229798 4.40688409,1.98146465 7.3470623,1.83989899 L7.3470623,0.418308081 C7.3470623,0.187247475 7.54382071,0 7.78661766,0 C8.02941461,0 8.22614648,0.187247475 8.22614648,0.418308081 L8.22614648,1.84962121 C11.0935652,2.06363636 13.3581841,4.3525 13.3581841,7.13532828 C13.3581841,7.19823232 13.3782182,13.4643182 15.0063641,15.9846212 L15.4182168,16.6219697 Z M1.51314245,15.7853535 L13.9053927,15.7853535 C12.4962948,12.8286869 12.4791,7.3830303 12.4791,7.13535354 C12.4791,4.67313131 10.3740902,2.66987374 7.78661766,2.66987374 L7.63173178,2.66987374 C5.044445,2.66987374 2.93962098,4.67313131 2.93962098,7.13535354 C2.93943523,7.38300505 2.92224043,12.8286869 1.51314245,15.7853535 Z M7.70910838,20 C6.39551053,20 5.32664671,18.9828283 5.32664671,17.7325505 C5.32664671,17.5014646 5.52340511,17.3142424 5.76620206,17.3142424 C6.00899901,17.3142424 6.20575742,17.5014646 6.20575742,17.7325505 C6.20575742,18.5214899 6.88006957,19.1633586 7.70908185,19.1633586 C8.53790838,19.1633586 9.21237974,18.5214899 9.21237974,17.7325505 C9.21237974,17.5014646 9.40913814,17.3142424 9.6519351,17.3142424 C9.89473205,17.3142424 10.0914639,17.5014646 10.0914639,17.7325505 C10.0915435,18.9828283 9.02270623,20 7.70910838,20 Z" id="Combined-Shape"></path>
                </g>
            </g>
        </g>
        <path d="M0,20 L20,0" id="Line" stroke="#333333" stroke-width="0.5" stroke-linecap="square"></path>
    </g>
</svg>