<?xml version="1.0" encoding="UTF-8"?>
<svg width="16px" height="20px" viewBox="0 0 16 20" version="1.1" xmlns="http://www.w3.org/2000/svg" xmlns:xlink="http://www.w3.org/1999/xlink">
    <!-- Generator: Sketch 49.3 (51167) - http://www.bohemiancoding.com/sketch -->
    <title>icon/notifications</title>
    <desc>Created with Sketch.</desc>
    <defs></defs>
    <g id="icon/notifications" stroke="none" stroke-width="1" fill="none" fill-rule="evenodd">
        <g id="icon_notifications" fill="#000000" fill-rule="nonzero">
            <path d="M14.7757911,16.6219697 L0,16.6219697 L0.394768385,15.9844697 C1.95543093,13.4641414 1.97463024,7.19810606 1.97463024,7.13515152 C1.97463024,4.30229798 4.22326392,1.98146465 7.04093471,1.83989899 L7.04093471,0.418308081 C7.04093471,0.187247475 7.22949485,0 7.46217526,0 C7.69485567,0 7.88339038,0.187247475 7.88339038,0.418308081 L7.88339038,1.84962121 C10.6313333,2.06363636 12.8015931,4.3525 12.8015931,7.13532828 C12.8015931,7.19823232 12.8207924,13.4643182 14.381099,15.9846212 L14.7757911,16.6219697 Z M1.45009485,15.7853535 L13.3260014,15.7853535 C11.9756158,12.8286869 11.9591375,7.3830303 11.9591375,7.13535354 C11.9591375,4.67313131 9.94183643,2.66987374 7.46217526,2.66987374 L7.31374296,2.66987374 C4.83425979,2.66987374 2.81713677,4.67313131 2.81713677,7.13535354 C2.81695876,7.38300505 2.80048041,12.8286869 1.45009485,15.7853535 Z M7.38789553,20 C6.12903093,20 5.10470309,18.9828283 5.10470309,17.7325505 C5.10470309,17.5014646 5.29326323,17.3142424 5.52594364,17.3142424 C5.75862405,17.3142424 5.94718419,17.5014646 5.94718419,17.7325505 C5.94718419,18.5214899 6.5934,19.1633586 7.3878701,19.1633586 C8.1821622,19.1633586 8.82853058,18.5214899 8.82853058,17.7325505 C8.82853058,17.5014646 9.01709072,17.3142424 9.24977113,17.3142424 C9.48245155,17.3142424 9.67098625,17.5014646 9.67098625,17.7325505 C9.67106254,18.9828283 8.64676014,20 7.38789553,20 Z" id="Combined-Shape"></path>
        </g>
    </g>
</svg>