<?xml version="1.0" encoding="UTF-8"?>
<svg width="20px" height="20px" viewBox="0 0 20 20" version="1.1" xmlns="http://www.w3.org/2000/svg" xmlns:xlink="http://www.w3.org/1999/xlink">
    <!-- Generator: Sketch 49.3 (51167) - http://www.bohemiancoding.com/sketch -->
    <title>icon/person</title>
    <desc>Created with Sketch.</desc>
    <defs></defs>
    <g id="icon/person" stroke="none" stroke-width="1" fill="none" fill-rule="evenodd">
        <path d="M18.591328,17.5785387 C18.3164629,16.7216899 17.9230188,15.9338357 17.4107278,15.2141006 C16.8988402,14.4949324 16.2765253,13.8615902 15.5429723,13.3134792 C14.8108092,12.766407 13.989788,12.34059 13.0787816,12.0357481 L12.5112532,11.8458411 L13.0383802,11.5674418 C13.5478916,11.2983461 14.0055884,10.9703668 14.4121036,10.5831525 C14.8201273,10.1945015 15.1681074,9.76611007 15.456449,9.29758262 C15.7445506,8.82944474 15.9664059,8.32927895 16.1221911,7.79651968 C16.2775699,7.26515096 16.3552612,6.7177633 16.3552612,6.15366541 C16.3552612,5.2999382 16.1899857,4.501386 15.8595236,3.75584426 C15.5278876,3.00765432 15.0744691,2.35551937 14.4984902,1.79781904 C13.9225146,1.24012195 13.2490143,0.801097931 12.4763156,0.479991749 C11.7063599,0.160025497 10.8816611,0 9.99997994,0 C9.11829881,0 8.2936,0.160025497 7.52364429,0.479991749 C6.75094549,0.801097937 6.07744522,1.24012196 5.50146972,1.79781904 C4.92549077,2.35551945 4.47207221,3.00765444 4.14043633,3.75584425 C3.80997418,4.50138606 3.6446987,5.29993827 3.6446987,6.15366541 C3.6446987,6.71786502 3.72241862,7.26705541 3.87788186,7.8019161 C4.033737,8.33812508 4.25569212,8.84172352 4.54391693,9.31326925 C4.83182394,9.78429503 5.18086216,10.2119526 5.5914721,10.5967068 C6.00142809,10.9808482 6.46439319,11.3074471 6.981008,11.5767965 L7.50258874,11.8487349 L6.94573002,12.0444398 C6.03995516,12.3627693 5.22083578,12.7942033 4.48741878,13.3389699 C3.75359394,13.8840395 3.12938059,14.5127494 2.61399035,15.2256558 C2.09838758,15.9388561 1.69992287,16.7218428 1.41833966,17.5754883 C1.16296168,18.3496903 1.02348534,19.1576189 1,20 L1.79373082,20 C1.81355515,19.3543755 1.90843677,18.7295492 2.07845917,18.1259176 C2.27063297,17.4436418 2.54322432,16.8070789 2.8961871,16.2167634 C3.24911518,15.6265058 3.67356888,15.0911908 4.16922214,14.6112669 C4.66487719,14.1313415 5.21774084,13.7203549 5.82734957,13.3786238 C6.43702204,13.0368569 7.09446004,12.7729114 7.79911073,12.5868326 C8.5048778,12.4004591 9.23869932,12.3073308 9.99997994,12.3073308 C11.1653915,12.3073308 12.2500566,12.5091017 13.2519976,12.913041 C14.2526349,13.3164547 15.1214465,13.8744024 15.8565997,14.5862258 C16.5917493,15.2980456 17.1679778,16.139277 17.5846077,17.1081464 C17.9699513,18.0042596 18.1771465,18.9687129 18.2065177,19.9999998 L19,20 C18.9769326,19.1628189 18.8406915,18.3558898 18.591328,17.5785387 Z M4.43991795,6.14661654 C4.43991795,5.40431064 4.58686658,4.70536364 4.88080595,4.05198289 C5.17318567,3.40206901 5.57115086,2.83297185 6.0739929,2.34621483 C6.57683494,1.85945781 7.16473807,1.47422282 7.83612854,1.19119581 C8.51110043,0.906659037 9.23314433,0.764411028 9.99997994,0.764411028 C10.7668155,0.764411028 11.4888594,0.906659037 12.1638313,1.19119581 C12.8352218,1.47422284 13.423125,1.85945785 13.9259671,2.34621485 C14.428809,2.83297191 14.8267742,3.40206906 15.119154,4.05198291 C15.4130933,4.70536369 15.5600419,5.40431069 15.5600419,6.14661654 C15.5600419,6.8889224 15.4130933,7.5878694 15.119154,8.24125021 C14.8267742,8.89116402 14.428809,9.46026117 13.925967,9.94701825 C13.423125,10.4337752 12.8352218,10.8190102 12.1638313,11.1020373 C11.4888594,11.386574 10.7668155,11.5288221 9.99997994,11.5288221 C9.23314433,11.5288221 8.51110043,11.386574 7.83612854,11.1020373 C7.16473807,10.8190103 6.57683494,10.4337753 6.0739929,9.94701825 C5.57115086,9.46026123 5.17318567,8.89116407 4.88080595,8.24125019 C4.58686658,7.58786944 4.43991795,6.88892244 4.43991795,6.14661654 Z" id="person" fill="#333333" fill-rule="nonzero"></path>
    </g>
</svg>