<?xml version="1.0" encoding="UTF-8"?>
<svg width="20px" height="20px" viewBox="0 0 20 20" version="1.1" xmlns="http://www.w3.org/2000/svg" xmlns:xlink="http://www.w3.org/1999/xlink">
    <!-- Generator: Sketch 49.3 (51167) - http://www.bohemiancoding.com/sketch -->
    <title>icon/phone</title>
    <desc>Created with Sketch.</desc>
    <defs></defs>
    <g id="icon/phone" stroke="none" stroke-width="1" fill="none" fill-rule="evenodd">
        <path d="M19.0185163,1.70841122 L15.0028314,0.781715884 C14.8770565,0.752776557 14.7448883,0.819705676 14.6945068,0.935785006 L12.8413195,5.25988542 C12.7948783,5.36824819 12.8263169,5.49627159 12.9194154,5.57144273 L15.6563279,7.8115542 L15.4382059,8.27627493 C13.9717559,11.4006257 11.4188714,13.9630775 8.28001735,15.4342889 L7.81543658,15.6520424 L7.49046294,15.2549983 L5.57570143,12.9155938 C5.4989715,12.8219383 5.37239518,12.7907761 5.26394388,12.8372552 L0.945273415,14.6880836 C0.820558998,14.7428646 0.752836556,14.8762675 0.781814405,15.0022102 L1.70830775,19.0170123 C1.73651625,19.1388729 1.84392138,19.2247969 1.96978673,19.2247969 C11.4988229,19.2247969 19.2250065,11.5032189 19.2250065,1.9695911 C19.2250065,1.84382566 19.1394501,1.73614831 19.0185163,1.70841122 Z M20,1.9695911 C20,11.9296797 11.9283966,19.9997904 1.96978673,19.9997904 C1.48324691,19.9997904 1.06283087,19.6650515 0.953160936,19.191277 L0.0265549276,15.175986 C-0.0869203646,14.6828029 0.172195455,14.181197 0.633598338,13.9785249 L4.95865919,12.1249237 C5.38612113,11.9417259 5.88099283,12.0653505 6.17542492,12.4247307 L8.03274954,14.6939603 C10.9364743,13.3097081 13.3122333,10.9317174 14.6979889,8.0286575 L12.4299039,6.17227255 C12.06926,5.87913872 11.9459885,5.38159918 12.1289881,4.95460033 L13.9828775,0.628861827 C14.1831905,0.167339306 14.6880538,-0.0859540283 15.1770958,0.0265690014 L19.1924367,0.953184937 C19.6662614,1.06218449 20,1.48392734 20,1.9695911 Z" id="phone" fill="#333333" fill-rule="nonzero"></path>
    </g>
</svg>