<?xml version="1.0" encoding="UTF-8"?>
<svg width="20px" height="20px" viewBox="0 0 20 20" version="1.1" xmlns="http://www.w3.org/2000/svg" xmlns:xlink="http://www.w3.org/1999/xlink">
    <!-- Generator: Sketch 49.3 (51167) - http://www.bohemiancoding.com/sketch -->
    <title>nav/reports</title>
    <desc>Created with Sketch.</desc>
    <defs></defs>
    <g id="nav/reports" stroke="none" stroke-width="1" fill="none" fill-rule="evenodd">
        <path d="M17.4238765,18.9487805 C17.2324809,18.8533633 17.1546882,18.6196813 17.2501619,18.4277427 C17.3453232,18.236433 17.5785344,18.1586227 17.7702117,18.2541799 L19.786059,19.2632342 C19.9465526,19.3439586 20.0307308,19.5242261 19.9896818,19.6994629 C19.9486956,19.8744294 19.79241,19.9979817 19.6123211,19.9979817 L19.1200267,19.9979817 L0.387402059,20 C0.173565183,20 2.84275361e-15,19.8261287 2.84275361e-15,19.6120137 L0,0.38861434 C0,0.208481333 0.123217422,0.0525025869 0.298606441,0.0105480605 C0.472873966,-0.0311383818 0.652790369,0.0535392334 0.733819864,0.215001239 L1.74170323,2.23302837 C1.83702272,2.42465885 1.7592683,2.65756107 1.56779924,2.75378965 C1.37681847,2.84977492 1.14435995,2.77172215 1.0479823,2.57952952 L0.994706117,2.47285773 L0.775,2.03050445 L0.775,19.225 L17.9717406,19.225 L17.4238765,18.9487805 Z M14.6476362,5.57614447 C14.3078729,5.31130964 14.1090374,4.90729484 14.1090374,4.47526612 C14.1090374,3.70508728 14.7350731,3.0781084 15.5041386,3.0781084 C16.2732041,3.0781084 16.8992398,3.70508728 16.8992398,4.47526612 C16.8992398,5.23423494 16.2879709,5.85642396 15.5291984,5.87042526 L15.4467729,5.87194665 L13.2723703,12.4040298 L13.3371134,12.4546786 C13.677128,12.7206774 13.8758747,13.1247658 13.8758747,13.5566923 C13.8758747,14.326871 13.2498389,14.95385 12.4807735,14.95385 C11.711708,14.95385 11.0856722,14.3268711 11.0856722,13.5566923 C11.0856722,13.3999547 11.1120894,13.2453084 11.1637754,13.0977055 L11.1910537,13.0198063 L8.24811939,10.6618343 L8.17788036,10.7060617 C7.95875716,10.844038 7.70504535,10.9172132 7.44283926,10.9172132 C7.38474854,10.9172132 7.32833837,10.9135494 7.27157795,10.9060948 L7.18920907,10.8952772 L5.36582802,14.5470019 L5.42284703,14.6062939 C5.67458688,14.8680717 5.81457539,15.2121846 5.81457539,15.5750117 C5.81457539,16.3451905 5.18853955,16.9721694 4.4194742,16.9721694 C3.65040869,16.9721694 3.02437281,16.3451905 3.02437281,15.5750117 C3.02437281,14.8048329 3.65040869,14.177854 4.4194742,14.177854 C4.47755998,14.177854 4.53396909,14.1815172 4.59073552,14.1889704 L4.6731044,14.1997879 L6.49648555,10.5480646 L6.43946646,10.4887712 C6.18772671,10.2269938 6.04773807,9.88288106 6.04773807,9.52005548 C6.04773807,8.74987631 6.67377412,8.12289573 7.44283926,8.12289573 C8.2119044,8.12289573 8.83794045,8.74987631 8.83794045,9.52005548 C8.83794045,9.6767934 8.81152306,9.8314399 8.75983735,9.97903984 L8.73255861,10.0569413 L11.6752224,12.4146966 L11.7453412,12.3709311 C11.959179,12.2374593 12.2026445,12.16505 12.4556474,12.1605261 L12.5381235,12.1590513 L14.7125906,5.62677468 L14.6476362,5.57614447 Z M15.5041386,3.85410441 C15.1616052,3.85410441 14.883663,4.13234983 14.883663,4.47526612 C14.883663,4.8181824 15.1616052,5.09642782 15.5041386,5.09642782 C15.846672,5.09642782 16.124614,4.81818244 16.124614,4.47526612 C16.124614,4.13234979 15.846672,3.85410441 15.5041386,3.85410441 Z M7.44183151,8.89990194 C7.0992981,8.89990194 6.82135593,9.17814736 6.82135593,9.52106364 C6.82135593,9.86397993 7.0992981,10.1422253 7.44183151,10.1422253 C7.78436492,10.1422253 8.06230709,9.86397993 8.06230709,9.52106364 C8.06230709,9.17814736 7.78436492,8.89990194 7.44183151,8.89990194 Z M4.41846625,16.1971816 C4.76100013,16.1971816 5.03894183,15.9189377 5.03894183,15.5760219 C5.03894183,15.2331043 4.7610004,14.9548602 4.41846625,14.9548602 C4.07593227,14.9548602 3.79799087,15.2331044 3.79799087,15.5760219 C3.79799087,15.9189377 4.07593255,16.1971816 4.41846625,16.1971816 Z M12.4807735,14.1788621 C12.8233072,14.1788621 13.1012489,13.9006183 13.1012489,13.5577025 C13.1012489,13.2147862 12.8233068,12.9365408 12.4807735,12.9365408 C12.1382401,12.9365408 11.860298,13.2147862 11.860298,13.5577025 C11.860298,13.9006183 12.1382397,14.1788621 12.4807735,14.1788621 Z" id="icon_reports" fill="#FFFFFF" fill-rule="nonzero"></path>
    </g>
</svg>