<?xml version="1.0" encoding="UTF-8"?>
<svg width="20px" height="20px" viewBox="0 0 20 20" version="1.1" xmlns="http://www.w3.org/2000/svg" xmlns:xlink="http://www.w3.org/1999/xlink">
    <!-- Generator: Sketch 49.3 (51167) - http://www.bohemiancoding.com/sketch -->
    <title>icon/trash_sm</title>
    <desc>Created with Sketch.</desc>
    <defs></defs>
    <g id="icon/trash_sm" stroke="none" stroke-width="1" fill="none" fill-rule="evenodd">
        <path d="M15.6,2 L12.074074,2 L12.074074,1.5 C12.074074,0.673 11.396089,0 10.562963,0 L8.548148,0 C7.715022,0 7.037037,0.673 7.037037,1.5 L7.037037,2 L3.511111,2 C2.677985,2 2,2.673 2,3.5 L2,4.5 C2,5.152 2.421096,5.708 3.007407,5.914 L3.007407,18.5 C3.007407,19.327 3.685393,20 4.518519,20 L14.592593,20 C15.425719,20 16.103704,19.327 16.103704,18.5 L16.103704,5.914 C16.690015,5.708 17.111111,5.152 17.111111,4.5 L17.111111,3.5 C17.111111,2.673 16.433126,2 15.6,2 Z M8.044444,1.5 C8.044444,1.224 8.270104,1 8.548148,1 L10.562963,1 C10.841007,1 11.066667,1.224 11.066667,1.5 L11.066667,2 L8.044444,2 L8.044444,1.5 Z M14.592593,19 L4.518519,19 C4.240474,19 4.014815,18.776 4.014815,18.5 L4.014815,6 L15.096296,6 L15.096296,18.5 C15.096296,18.776 14.870637,19 14.592593,19 Z M16.103704,4.5 C16.103704,4.776 15.878044,5 15.6,5 L3.511111,5 C3.233067,5 3.007407,4.776 3.007407,4.5 L3.007407,3.5 C3.007407,3.224 3.233067,3 3.511111,3 L15.6,3 C15.878044,3 16.103704,3.224 16.103704,3.5 L16.103704,4.5 Z M12.577778,7 C12.299733,7 12.074074,7.224 12.074074,7.5 L12.074074,17.5 C12.074074,17.776 12.299733,18 12.577778,18 C12.855822,18 13.081481,17.776 13.081481,17.5 L13.081481,7.5 C13.081481,7.224 12.855822,7 12.577778,7 Z M9.555556,7 C9.277511,7 9.051852,7.224 9.051852,7.5 L9.051852,17.5 C9.051852,17.776 9.277511,18 9.555556,18 C9.8336,18 10.059259,17.776 10.059259,17.5 L10.059259,7.5 C10.059259,7.224 9.8336,7 9.555556,7 Z M6.533333,7 C6.255289,7 6.02963,7.224 6.02963,7.5 L6.02963,17.5 C6.02963,17.776 6.255289,18 6.533333,18 C6.811378,18 7.037037,17.776 7.037037,17.5 L7.037037,7.5 C7.037037,7.224 6.811378,7 6.533333,7 Z" id="icon/trash/sm" fill="#575757" fill-rule="nonzero"></path>
    </g>
</svg>