<?xml version="1.0" encoding="UTF-8"?>
<svg width="20px" height="20px" viewBox="0 0 20 20" version="1.1" xmlns="http://www.w3.org/2000/svg" xmlns:xlink="http://www.w3.org/1999/xlink">
    <!-- Generator: Sketch 49.3 (51167) - http://www.bohemiancoding.com/sketch -->
    <title>nav/user_light</title>
    <desc>Created with Sketch.</desc>
    <defs></defs>
    <g id="nav/user_light" stroke="none" stroke-width="1" fill="none" fill-rule="evenodd">
        <path d="M9.5875,0.775 C7.1754811,0.775 5.2125,2.73890392 5.2125,5.15 C5.2125,7.56109608 7.1754811,9.525 9.5875,9.525 C11.9995189,9.525 13.9625,7.56109608 13.9625,5.15 C13.9625,2.73890392 11.9995189,0.775 9.5875,0.775 Z M9.625,0 C12.4625293,0 14.775,2.30831014 14.775,5.15 C14.775,7.99168986 12.4625293,10.3 9.625,10.3 C6.78747067,10.3 4.475,7.99168986 4.475,5.15 C4.475,2.30831014 6.78747067,0 9.625,0 Z M18.3780085,19.2310859 C18.3362166,18.8370208 18.2966593,18.569716 18.2593365,18.4291715 C18.0844646,17.7706639 17.7816463,17.1512693 17.3494706,16.5945966 C15.9495307,14.7905779 13.2838831,13.825 9.63419894,13.825 C5.98348878,13.825 3.31787468,14.7905515 1.91901157,16.594488 C1.88631059,16.6369516 1.67642358,16.930468 1.59686092,17.0599568 C1.32654124,17.4999043 1.12829052,17.9705519 1.00146461,18.4615903 C0.966451359,18.5971529 0.92429649,18.8536514 0.875,19.2310859 L18.3780085,19.2310859 Z M19.1564912,19.1440166 L19.2473506,20 L0,20 L0.11433152,19.1253961 C0.167606152,18.7178601 0.213517612,18.4387484 0.258893632,18.2632174 C0.405937608,17.6943979 0.63551975,17.1532678 0.944350998,16.6510822 C1.02466159,16.5204905 1.24146136,16.2114825 1.31278894,16.1189417 C2.88650508,14.0912879 5.78309246,13.05 9.64200356,13.05 C13.4998311,13.05 16.3963703,14.0912963 17.969445,16.1166501 C18.4609415,16.7491783 18.8128185,17.4606082 19.0161796,18.2257261 C19.0668379,18.4163212 19.1106387,18.7120417 19.1564912,19.1440166 Z" id="Combined-Shape" fill="#FFFFFF" fill-rule="nonzero"></path>
    </g>
</svg>